<svg id="svg" version="1.1" xmlns="http://www.w3.org/2000/svg" xmlns:xlink="http://www.w3.org/1999/xlink" width="513" height="512" ><g id="svgg"><path id="path0" d="M436.401 0.484 C 436.217 0.781,435.215 1.027,434.175 1.030 C 425.560 1.051,409.885 8.066,400.529 16.087 C 394.941 20.877,87.399 329.002,86.230 330.981 C 85.299 332.558,81.187 347.125,79.406 355.154 C 79.187 356.140,78.278 359.715,77.386 363.097 C 76.493 366.480,75.551 370.112,75.293 371.169 C 75.035 372.226,74.593 374.013,74.311 375.141 C 74.029 376.268,73.586 378.056,73.326 379.113 C 73.067 380.170,72.357 382.879,71.748 385.134 C 71.140 387.389,70.419 390.157,70.147 391.284 C 69.874 392.412,69.431 394.199,69.162 395.256 C 68.893 396.313,68.462 398.043,68.203 399.100 C 67.945 400.157,67.003 403.789,66.111 407.171 C 65.218 410.554,64.302 414.128,64.075 415.115 C 63.848 416.101,62.463 421.636,60.997 427.415 C 57.987 439.277,57.897 441.423,60.207 446.145 C 64.099 454.101,72.288 456.344,83.792 452.607 C 86.610 451.692,90.877 450.345,93.273 449.615 C 95.669 448.885,99.589 447.661,101.985 446.895 C 104.381 446.129,108.071 444.973,110.185 444.327 C 112.299 443.680,115.989 442.526,118.385 441.762 C 120.780 440.998,123.779 440.083,125.047 439.729 C 126.315 439.375,127.814 438.908,128.378 438.692 C 128.942 438.476,131.133 437.783,133.247 437.152 C 135.361 436.521,137.552 435.825,138.115 435.606 C 138.679 435.387,141.447 434.502,144.265 433.639 C 147.084 432.777,153.195 430.882,157.846 429.428 C 162.497 427.974,166.994 426.608,167.840 426.392 C 170.783 425.642,177.436 423.248,178.260 422.643 C 180.062 421.319,489.866 111.331,492.540 108.176 C 497.332 102.523,503.775 91.566,503.775 89.069 C 503.775 88.675,503.966 88.134,504.199 87.866 C 504.771 87.208,506.099 82.383,507.367 76.361 C 508.361 71.639,507.532 51.825,506.285 50.506 C 506.032 50.238,505.825 49.545,505.825 48.966 C 505.825 45.908,500.874 35.105,496.536 28.699 C 486.474 13.841,471.474 4.476,452.014 0.902 C 447.796 0.128,436.803 -0.167,436.401 0.484 M450.733 32.506 C 451.578 32.710,452.731 33.059,453.295 33.282 C 455.627 34.204,457.455 35.000,458.420 35.516 C 458.984 35.817,460.137 36.409,460.983 36.833 C 463.875 38.282,471.112 46.131,472.917 49.778 C 478.438 60.928,478.411 70.714,472.831 81.742 C 470.886 85.584,455.526 102.498,453.981 102.498 C 453.745 102.498,442.813 91.733,429.689 78.577 L 405.826 54.657 413.161 47.272 C 419.665 40.723,426.882 34.849,428.423 34.849 C 428.722 34.849,429.482 34.583,430.112 34.257 C 432.598 32.972,433.079 32.799,434.198 32.791 C 434.836 32.787,435.704 32.553,436.127 32.271 C 436.966 31.711,448.185 31.891,450.733 32.506 M407.778 101.074 C 426.235 119.520,431.349 124.904,431.003 125.528 C 430.021 127.301,161.600 395.640,160.809 395.640 C 160.340 395.640,159.814 395.871,159.640 396.153 C 159.466 396.435,158.872 396.665,158.321 396.665 C 157.771 396.665,156.919 396.873,156.430 397.128 C 155.940 397.382,154.502 397.874,153.234 398.221 C 151.965 398.569,149.659 399.262,148.109 399.761 C 145.231 400.690,133.511 404.334,128.891 405.738 C 127.481 406.166,125.060 406.920,123.509 407.413 C 121.959 407.907,118.961 408.837,116.847 409.482 C 114.733 410.126,111.043 411.278,108.647 412.042 C 106.251 412.807,103.253 413.718,101.985 414.067 C 100.717 414.416,99.278 414.910,98.789 415.165 C 96.815 416.191,96.239 414.467,97.326 410.795 C 97.583 409.930,98.013 408.414,98.282 407.428 C 98.551 406.441,99.024 404.711,99.333 403.584 C 99.641 402.456,100.259 400.035,100.704 398.203 C 101.150 396.371,103.487 387.146,105.897 377.703 C 108.308 368.261,110.499 359.612,110.768 358.485 C 111.037 357.358,111.477 355.570,111.746 354.513 C 112.015 353.456,112.436 351.727,112.683 350.670 C 112.930 349.613,113.308 348.287,113.525 347.723 C 114.001 346.481,383.427 76.799,383.827 77.164 C 383.983 77.305,394.760 88.065,407.778 101.074 M15.631 481.349 C 3.997 485.332,0.118 498.325,8.014 506.860 C 10.058 509.069,13.903 511.463,15.409 511.463 C 15.921 511.463,16.482 511.693,16.656 511.975 C 17.061 512.631,351.185 512.689,352.470 512.033 C 352.960 511.784,354.570 511.053,356.048 510.409 C 361.490 508.041,364.891 502.628,364.891 496.335 C 364.891 489.299,360.488 483.702,353.068 481.305 C 350.615 480.512,17.947 480.556,15.631 481.349 " stroke="none" fill="#040404" fill-rule="evenodd"></path><path id="path1" d="M0.000 256.244 L 0.000 512.488 7.047 512.447 C 10.922 512.425,13.747 512.275,13.325 512.115 C 10.672 511.108,5.687 506.771,5.654 505.441 C 5.645 505.088,5.463 504.800,5.250 504.800 C 4.474 504.800,2.562 498.966,2.562 496.600 C 2.562 491.725,8.172 482.251,11.059 482.251 C 11.459 482.251,11.787 482.020,11.787 481.738 C 11.787 481.456,12.235 481.226,12.782 481.226 C 13.329 481.226,13.919 480.995,14.093 480.713 C 14.304 480.373,71.554 480.201,184.183 480.201 L 353.955 480.201 356.476 481.474 C 359.215 482.857,363.354 486.613,363.354 487.715 C 363.354 488.092,363.528 488.401,363.741 488.401 C 365.036 488.401,367.040 497.732,365.974 498.797 C 365.660 499.111,365.404 500.000,365.404 500.773 C 365.404 501.545,365.173 502.320,364.891 502.494 C 364.609 502.668,364.379 503.239,364.379 503.763 C 364.379 504.286,364.206 504.792,363.994 504.886 C 363.783 504.980,362.969 505.915,362.185 506.964 C 360.682 508.977,357.129 511.675,355.408 512.110 C 354.845 512.252,390.073 512.395,433.693 512.428 L 513.000 512.488 513.000 256.244 L 513.000 0.000 483.404 0.077 C 467.126 0.119,454.500 0.244,455.345 0.354 C 456.191 0.464,457.459 0.748,458.164 0.986 C 458.869 1.224,460.483 1.702,461.751 2.049 C 463.020 2.396,464.576 2.884,465.211 3.133 C 465.845 3.383,466.883 3.790,467.517 4.037 C 469.260 4.717,475.809 7.885,476.101 8.190 C 476.242 8.337,476.991 8.785,477.766 9.184 C 478.542 9.584,479.176 10.102,479.176 10.336 C 479.176 10.571,479.478 10.762,479.848 10.762 C 480.218 10.762,480.967 11.166,481.514 11.659 C 482.061 12.152,483.368 13.198,484.419 13.983 C 490.855 18.791,499.234 29.415,502.695 37.155 C 503.073 38.001,503.586 39.093,503.835 39.583 C 504.084 40.072,504.288 40.822,504.288 41.248 C 504.288 41.675,504.518 42.024,504.800 42.024 C 505.082 42.024,505.313 42.587,505.313 43.275 C 505.313 43.963,505.543 44.668,505.825 44.843 C 506.107 45.017,506.338 45.824,506.338 46.636 C 506.338 47.449,506.544 48.241,506.796 48.397 C 507.048 48.552,507.400 49.661,507.577 50.861 C 507.755 52.061,508.151 54.541,508.458 56.374 C 509.463 62.383,509.030 77.864,507.819 79.154 C 507.568 79.421,507.363 80.388,507.363 81.302 C 507.363 82.215,507.132 83.105,506.850 83.279 C 506.568 83.453,506.338 84.162,506.338 84.854 C 506.338 85.546,506.134 86.512,505.885 87.002 C 505.636 87.491,505.206 88.468,504.929 89.173 C 504.652 89.877,504.183 91.031,503.887 91.735 C 503.591 92.440,503.042 93.766,502.668 94.682 C 502.294 95.598,501.813 96.348,501.600 96.348 C 501.387 96.348,501.213 96.809,501.213 97.373 C 501.213 97.936,500.982 98.398,500.700 98.398 C 500.418 98.398,500.188 98.636,500.188 98.927 C 500.188 99.936,495.330 106.822,492.443 109.904 C 478.354 124.948,179.297 423.338,177.577 424.068 C 176.449 424.547,175.127 425.150,174.637 425.408 C 174.148 425.666,173.395 425.877,172.965 425.877 C 172.534 425.877,171.781 426.084,171.292 426.337 C 170.803 426.590,168.672 427.309,166.558 427.935 C 164.444 428.562,162.254 429.254,161.690 429.474 C 161.126 429.693,159.050 430.342,157.077 430.915 C 155.104 431.488,150.723 432.800,147.340 433.831 C 143.958 434.862,140.383 435.944,139.397 436.235 C 138.410 436.527,137.202 436.967,136.713 437.215 C 136.224 437.462,135.243 437.664,134.535 437.664 C 133.826 437.664,133.247 437.895,133.247 438.177 C 133.247 438.459,132.569 438.689,131.740 438.689 C 130.911 438.689,130.090 438.920,129.916 439.202 C 129.741 439.484,129.050 439.714,128.378 439.714 C 127.707 439.714,127.015 439.945,126.841 440.227 C 126.666 440.509,125.859 440.739,125.047 440.739 C 124.235 440.739,123.427 440.970,123.253 441.252 C 123.079 441.534,122.387 441.764,121.716 441.764 C 121.044 441.764,120.353 441.995,120.178 442.277 C 120.004 442.559,119.312 442.789,118.641 442.789 C 117.969 442.789,117.278 443.020,117.103 443.302 C 116.929 443.584,116.122 443.814,115.310 443.814 C 114.497 443.814,113.690 444.045,113.516 444.327 C 113.342 444.609,112.748 444.839,112.198 444.839 C 111.647 444.839,110.795 445.046,110.306 445.299 C 109.817 445.552,107.686 446.271,105.572 446.897 C 103.458 447.524,101.268 448.213,100.704 448.429 C 100.140 448.645,98.641 449.105,97.373 449.452 C 96.104 449.798,94.605 450.261,94.041 450.480 C 93.478 450.700,91.056 451.466,88.660 452.182 C 86.264 452.898,82.757 453.961,80.866 454.543 C 69.149 458.150,58.729 451.993,57.586 440.787 C 57.295 437.937,57.798 435.159,60.514 424.596 C 61.094 422.341,61.783 419.631,62.046 418.574 C 63.124 414.234,63.679 412.235,64.114 411.119 C 64.367 410.472,64.573 409.274,64.573 408.459 C 64.573 407.643,64.779 406.849,65.029 406.694 C 65.280 406.539,65.609 405.660,65.761 404.742 C 65.913 403.823,66.301 402.034,66.623 400.765 C 66.946 399.497,67.334 397.707,67.486 396.789 C 67.637 395.870,67.967 394.992,68.217 394.837 C 68.468 394.682,68.673 393.775,68.673 392.822 C 68.673 391.868,68.904 390.946,69.186 390.772 C 69.468 390.598,69.698 389.675,69.698 388.722 C 69.698 387.769,69.929 386.846,70.211 386.672 C 70.493 386.498,70.723 385.690,70.723 384.878 C 70.723 384.066,70.954 383.259,71.236 383.084 C 71.518 382.910,71.748 381.988,71.748 381.034 C 71.748 380.081,71.979 379.159,72.261 378.985 C 72.543 378.810,72.773 377.874,72.773 376.904 C 72.773 375.934,72.980 375.141,73.232 375.141 C 73.484 375.141,73.821 374.276,73.981 373.219 C 74.660 368.723,74.962 367.428,75.392 367.162 C 75.643 367.007,75.848 366.101,75.848 365.147 C 75.848 364.194,76.079 363.272,76.361 363.097 C 76.643 362.923,76.873 362.198,76.873 361.485 C 76.873 360.773,77.333 358.538,77.895 356.519 C 78.887 352.955,80.012 348.453,81.758 341.060 C 82.224 339.087,82.815 337.073,83.071 336.583 C 83.326 336.094,83.535 335.342,83.535 334.912 C 83.535 331.535,83.806 331.257,217.524 197.433 C 414.356 0.446,400.727 14.011,403.391 12.437 C 404.202 11.958,404.865 11.385,404.865 11.164 C 404.865 10.943,405.168 10.762,405.537 10.762 C 405.907 10.762,406.668 10.359,407.229 9.865 C 407.790 9.372,408.787 8.659,409.446 8.280 C 413.183 6.129,414.194 5.637,414.874 5.637 C 415.288 5.637,415.627 5.407,415.627 5.125 C 415.627 4.843,415.976 4.612,416.403 4.612 C 416.830 4.612,417.579 4.409,418.069 4.160 C 419.625 3.368,421.454 2.698,423.827 2.049 C 425.096 1.702,426.710 1.224,427.415 0.986 C 428.119 0.748,429.388 0.464,430.233 0.354 C 431.079 0.244,334.622 0.119,215.885 0.077 L 0.000 0.000 0.000 256.244 M439.484 32.758 C 439.295 33.063,438.002 33.312,436.609 33.312 C 435.216 33.312,434.077 33.542,434.077 33.824 C 434.077 34.106,433.385 34.337,432.539 34.337 C 431.694 34.337,431.002 34.567,431.002 34.849 C 431.002 35.131,430.663 35.362,430.249 35.362 C 429.379 35.362,426.531 36.902,423.573 38.971 C 422.445 39.761,418.341 43.608,414.455 47.520 L 407.389 54.632 430.472 77.796 C 443.168 90.536,453.731 100.960,453.945 100.960 C 454.514 100.960,468.596 86.624,469.803 84.817 C 471.674 82.015,473.320 78.697,474.000 76.361 C 474.368 75.092,474.877 73.525,475.129 72.877 C 475.763 71.252,475.717 59.076,475.076 58.680 C 474.794 58.506,474.563 57.797,474.563 57.105 C 474.563 56.413,474.352 55.447,474.093 54.957 C 473.834 54.468,473.115 52.916,472.494 51.508 C 470.521 47.033,466.457 41.995,462.776 39.464 C 461.790 38.785,460.867 38.102,460.726 37.946 C 460.145 37.301,453.855 34.337,453.069 34.337 C 452.602 34.337,452.000 34.128,451.732 33.874 C 450.759 32.949,439.973 31.966,439.484 32.758 M248.918 213.108 C 138.085 323.980,114.285 348.026,114.285 349.134 C 114.285 349.875,114.054 350.623,113.772 350.798 C 113.490 350.972,113.260 351.894,113.260 352.848 C 113.260 353.801,113.029 354.723,112.747 354.898 C 112.465 355.072,112.235 355.703,112.235 356.301 C 112.235 356.898,112.020 358.096,111.757 358.961 C 111.494 359.827,111.042 361.457,110.751 362.585 C 109.574 367.151,104.910 385.784,104.465 387.697 C 104.203 388.824,103.751 390.669,103.462 391.797 C 103.173 392.924,102.812 394.598,102.660 395.517 C 102.508 396.436,102.179 397.314,101.928 397.469 C 101.678 397.624,101.473 398.531,101.473 399.484 C 101.473 400.437,101.267 401.344,101.017 401.499 C 100.766 401.654,100.420 402.590,100.248 403.579 C 100.076 404.568,99.794 406.187,99.622 407.176 C 99.450 408.165,99.104 409.101,98.853 409.256 C 98.603 409.411,98.398 410.285,98.398 411.199 C 98.398 412.113,98.121 413.137,97.783 413.475 C 97.304 413.953,97.468 414.090,98.521 414.090 C 99.266 414.090,100.017 413.859,100.191 413.577 C 100.366 413.296,101.057 413.065,101.729 413.065 C 102.400 413.065,103.092 412.834,103.266 412.552 C 103.440 412.271,104.248 412.040,105.060 412.040 C 105.872 412.040,106.679 411.809,106.854 411.527 C 107.028 411.246,107.720 411.015,108.391 411.015 C 109.063 411.015,109.754 410.784,109.929 410.502 C 110.103 410.221,110.696 409.990,111.247 409.990 C 111.798 409.990,112.649 409.782,113.139 409.527 C 113.628 409.273,115.066 408.781,116.335 408.434 C 117.603 408.087,119.909 407.395,121.460 406.897 C 125.172 405.704,133.951 403.014,139.397 401.401 C 141.792 400.692,144.214 399.942,144.778 399.737 C 148.205 398.485,152.755 397.178,153.685 397.178 C 154.283 397.178,154.771 396.947,154.771 396.665 C 154.771 396.383,155.463 396.153,156.309 396.153 C 157.154 396.153,157.846 395.922,157.846 395.640 C 157.846 395.358,158.481 395.128,159.256 395.128 C 160.487 395.128,429.214 127.004,429.859 125.132 C 429.969 124.813,389.630 84.035,384.791 79.573 L 383.550 78.429 248.918 213.108 " stroke="none" fill="#fbfbfb" fill-rule="evenodd"></path><path id="path2" d="M413.822 47.277 L 409.734 51.505 413.962 47.417 C 417.889 43.620,418.423 43.049,418.050 43.049 C 417.973 43.049,416.070 44.952,413.822 47.277 M508.517 63.292 C 508.523 64.420,508.627 64.821,508.750 64.183 C 508.873 63.546,508.868 62.623,508.740 62.133 C 508.611 61.643,508.511 62.165,508.517 63.292 M508.507 68.673 C 508.507 69.660,508.612 70.063,508.741 69.570 C 508.870 69.077,508.870 68.270,508.741 67.776 C 508.612 67.283,508.507 67.687,508.507 68.673 M372.311 88.788 L 367.710 93.529 372.450 88.927 C 376.853 84.653,377.424 84.048,377.052 84.048 C 376.976 84.048,374.842 86.181,372.311 88.788 M351.310 109.672 C 347.089 113.900,343.751 117.360,343.892 117.360 C 344.033 117.360,347.602 113.900,351.823 109.672 C 356.044 105.444,359.382 101.985,359.241 101.985 C 359.100 101.985,355.531 105.444,351.310 109.672 M330.293 130.812 L 321.586 139.653 330.426 130.946 C 338.640 122.857,339.498 121.972,339.133 121.972 C 339.059 121.972,335.081 125.950,330.293 130.812 M430.212 124.444 C 430.444 124.854,430.124 125.667,429.405 126.494 L 428.212 127.866 429.717 126.463 C 430.970 125.295,431.105 124.953,430.524 124.413 C 429.960 123.889,429.900 123.895,430.212 124.444 M309.281 151.824 L 300.574 160.665 309.414 151.958 C 314.277 147.170,318.255 143.191,318.255 143.118 C 318.255 142.752,317.370 143.611,309.281 151.824 M285.965 175.143 L 271.875 189.364 286.096 175.274 C 299.312 162.181,300.549 160.921,300.186 160.921 C 300.114 160.921,293.714 167.321,285.965 175.143 M267.761 193.336 L 264.187 197.051 267.903 193.478 C 269.946 191.512,271.618 189.840,271.618 189.762 C 271.618 189.386,271.080 189.885,267.761 193.336 M253.169 207.814 C 251.924 209.082,251.021 210.120,251.162 210.120 C 251.303 210.120,252.436 209.082,253.681 207.814 C 254.926 206.545,255.829 205.507,255.688 205.507 C 255.547 205.507,254.414 206.545,253.169 207.814 M347.178 254.834 L 345.673 256.500 347.338 254.995 C 348.254 254.167,349.004 253.417,349.004 253.329 C 349.004 252.933,348.581 253.282,347.178 254.834 M149.378 266.109 L 145.290 270.337 149.518 266.249 C 151.844 264.001,153.746 262.098,153.746 262.021 C 153.746 261.647,153.175 262.182,149.378 266.109 M326.179 275.846 L 323.636 278.537 326.326 275.994 C 328.827 273.631,329.252 273.156,328.870 273.156 C 328.789 273.156,327.578 274.367,326.179 275.846 M129.906 285.584 L 124.791 290.837 130.044 285.721 C 134.923 280.970,135.530 280.331,135.159 280.331 C 135.083 280.331,132.719 282.695,129.906 285.584 M305.167 296.858 L 302.624 299.549 305.314 297.006 C 307.815 294.643,308.240 294.168,307.858 294.168 C 307.777 294.168,306.566 295.379,305.167 296.858 M109.405 306.083 L 104.804 310.824 109.544 306.222 C 112.151 303.691,114.285 301.558,114.285 301.481 C 114.285 301.109,113.679 301.680,109.405 306.083 M284.671 317.358 L 281.612 320.561 284.815 317.502 C 286.577 315.820,288.018 314.378,288.018 314.299 C 288.018 313.920,287.512 314.383,284.671 317.358 M89.926 325.558 L 86.867 328.761 90.070 325.702 C 93.045 322.860,93.507 322.355,93.129 322.355 C 93.049 322.355,91.608 323.796,89.926 325.558 M263.149 338.882 L 259.575 342.598 263.290 339.024 C 266.741 335.705,267.240 335.167,266.864 335.167 C 266.786 335.167,265.114 336.839,263.149 338.882 M242.137 359.894 L 238.563 363.610 242.278 360.036 C 245.729 356.717,246.228 356.179,245.852 356.179 C 245.774 356.179,244.102 357.851,242.137 359.894 M235.744 366.172 C 234.499 367.441,233.596 368.479,233.737 368.479 C 233.878 368.479,235.012 367.441,236.257 366.172 C 237.502 364.904,238.405 363.866,238.264 363.866 C 238.123 363.866,236.989 364.904,235.744 366.172 M230.619 371.297 C 229.375 372.566,228.471 373.603,228.612 373.603 C 228.753 373.603,229.887 372.566,231.132 371.297 C 232.377 370.029,233.280 368.991,233.139 368.991 C 232.998 368.991,231.864 370.029,230.619 371.297 M218.827 383.213 L 209.864 392.309 218.960 383.346 C 227.412 375.019,228.289 374.116,227.923 374.116 C 227.850 374.116,223.756 378.209,218.827 383.213 M207.045 394.872 C 205.800 396.140,204.897 397.178,205.038 397.178 C 205.179 397.178,206.313 396.140,207.557 394.872 C 208.802 393.603,209.705 392.565,209.565 392.565 C 209.424 392.565,208.290 393.603,207.045 394.872 M200.625 401.406 L 197.051 405.121 200.767 401.548 C 204.218 398.228,204.717 397.690,204.341 397.690 C 204.263 397.690,202.591 399.362,200.625 401.406 M181.645 420.368 L 180.139 422.033 181.805 420.528 C 183.358 419.125,183.706 418.702,183.310 418.702 C 183.222 418.702,182.472 419.452,181.645 420.368 M3.215 496.600 C 3.215 497.869,3.314 498.388,3.437 497.753 C 3.559 497.119,3.559 496.082,3.437 495.447 C 3.314 494.813,3.215 495.332,3.215 496.600 " stroke="none" fill="#a9a9a9" fill-rule="evenodd"></path><path id="path3" d="M101.857 480.585 C 147.308 480.657,221.683 480.657,267.134 480.585 C 312.585 480.513,275.398 480.454,184.496 480.454 C 93.593 480.454,56.406 480.513,101.857 480.585 " stroke="none" fill="#7c7c7c" fill-rule="evenodd"></path><path id="path4" d="M434.077 0.512 C 433.476 0.901,433.609 1.011,434.687 1.017 C 435.446 1.021,436.209 0.794,436.383 0.512 C 436.788 -0.142,435.090 -0.142,434.077 0.512 M449.452 0.512 C 449.874 0.786,450.682 1.009,451.245 1.009 C 452.094 1.009,452.138 0.924,451.501 0.512 C 451.079 0.239,450.272 0.016,449.708 0.016 C 448.859 0.016,448.815 0.101,449.452 0.512 M428.696 1.537 C 427.390 2.099,428.737 2.099,430.490 1.537 C 431.519 1.208,431.570 1.124,430.746 1.112 C 430.182 1.104,429.260 1.295,428.696 1.537 M455.089 1.537 C 456.841 2.099,458.189 2.099,456.883 1.537 C 456.319 1.295,455.396 1.104,454.833 1.112 C 454.009 1.124,454.059 1.208,455.089 1.537 M424.596 2.562 C 423.950 2.840,423.855 3.003,424.340 3.003 C 424.762 3.003,425.570 2.805,426.133 2.562 C 426.779 2.285,426.874 2.122,426.390 2.122 C 425.967 2.122,425.160 2.320,424.596 2.562 M459.445 2.562 C 460.009 2.805,460.816 3.003,461.239 3.003 C 461.723 3.003,461.629 2.840,460.983 2.562 C 460.419 2.320,459.612 2.122,459.189 2.122 C 458.704 2.122,458.799 2.285,459.445 2.562 M406.524 11.032 C 405.048 12.026,403.840 12.951,403.840 13.087 C 403.840 13.224,405.109 12.493,406.659 11.464 C 409.122 9.828,409.845 9.225,409.343 9.225 C 409.268 9.225,408.000 10.038,406.524 11.032 M479.872 11.670 C 480.278 12.326,483.276 14.545,483.276 14.189 C 483.276 14.062,482.429 13.313,481.394 12.524 C 480.360 11.735,479.675 11.350,479.872 11.670 M400.222 15.926 L 397.434 18.528 400.381 16.085 C 403.085 13.843,403.609 13.325,403.169 13.325 C 403.082 13.325,401.756 14.495,400.222 15.926 M483.788 14.510 C 483.788 14.598,484.538 15.348,485.454 16.176 L 487.119 17.681 485.614 16.015 C 484.211 14.463,483.788 14.114,483.788 14.510 M491.732 22.549 C 492.833 23.677,493.849 24.599,493.990 24.599 C 494.131 24.599,493.345 23.677,492.244 22.549 C 491.143 21.422,490.127 20.500,489.986 20.500 C 489.845 20.500,490.631 21.422,491.732 22.549 M496.838 29.084 C 497.628 30.282,498.372 31.262,498.491 31.262 C 498.861 31.262,496.899 28.143,496.129 27.507 C 495.729 27.176,496.048 27.886,496.838 29.084 M436.154 32.259 C 435.673 32.563,436.216 32.626,437.691 32.437 C 438.945 32.277,440.067 32.062,440.184 31.960 C 440.665 31.542,436.838 31.826,436.154 32.259 M445.394 31.960 C 445.512 32.062,446.634 32.277,447.887 32.437 C 449.362 32.626,449.905 32.563,449.425 32.259 C 448.740 31.826,444.914 31.542,445.394 31.960 M413.643 46.827 C 407.944 52.535,405.969 54.817,406.474 55.109 C 406.859 55.332,406.991 55.315,406.769 55.071 C 406.547 54.828,409.888 51.101,414.193 46.789 C 418.499 42.477,421.906 38.949,421.765 38.949 C 421.624 38.949,417.969 42.494,413.643 46.827 M466.620 42.024 C 468.293 43.715,469.778 45.099,469.919 45.099 C 470.060 45.099,468.806 43.715,467.132 42.024 C 465.459 40.333,463.974 38.949,463.833 38.949 C 463.692 38.949,464.946 40.333,466.620 42.024 M506.937 53.555 C 506.929 54.119,507.120 55.041,507.363 55.605 C 507.924 56.911,507.924 55.563,507.363 53.811 C 507.033 52.781,506.949 52.731,506.937 53.555 M476.357 65.598 C 476.357 68.732,476.507 70.764,476.690 70.113 C 476.874 69.462,477.024 67.431,477.024 65.598 C 477.024 63.766,476.874 61.735,476.690 61.084 C 476.507 60.433,476.357 62.465,476.357 65.598 M508.071 65.855 C 508.072 69.237,508.155 70.554,508.255 68.781 C 508.355 67.009,508.355 64.241,508.253 62.632 C 508.152 61.022,508.070 62.472,508.071 65.855 M349.757 66.239 L 346.698 69.442 349.901 66.383 C 351.663 64.701,353.104 63.259,353.104 63.180 C 353.104 62.801,352.598 63.264,349.757 66.239 M507.106 76.873 C 506.912 77.759,506.859 78.591,506.990 78.721 C 507.121 78.852,507.375 78.222,507.555 77.322 C 507.982 75.185,507.568 74.771,507.106 76.873 M264.699 195.898 L 145.803 314.924 264.721 196.133 C 330.127 130.799,383.840 77.526,384.085 77.749 C 384.330 77.972,384.364 77.866,384.161 77.514 C 383.959 77.161,383.748 76.873,383.694 76.873 C 383.640 76.873,330.093 130.434,264.699 195.898 M386.928 80.286 C 386.928 80.566,387.562 81.353,388.337 82.037 L 389.747 83.279 388.466 81.742 C 387.761 80.896,387.127 80.108,387.056 79.991 C 386.986 79.873,386.928 80.006,386.928 80.286 M327.720 88.276 L 324.661 91.479 327.864 88.420 C 329.626 86.738,331.067 85.296,331.067 85.217 C 331.067 84.838,330.561 85.301,327.720 88.276 M462.001 94.341 C 458.058 98.311,454.371 101.756,453.808 101.996 C 453.118 102.290,453.036 102.443,453.558 102.465 C 453.984 102.483,457.787 99.038,462.007 94.810 C 466.228 90.582,469.566 87.123,469.425 87.123 C 469.284 87.123,465.943 90.371,462.001 94.341 M397.156 90.838 C 398.413 92.177,399.508 93.273,399.591 93.273 C 399.976 93.273,399.569 92.813,397.306 90.689 L 394.872 88.404 397.156 90.838 M405.634 99.423 C 408.725 102.523,411.369 105.060,411.510 105.060 C 411.651 105.060,409.237 102.523,406.146 99.423 C 403.055 96.322,400.411 93.785,400.270 93.785 C 400.129 93.785,402.543 96.322,405.634 99.423 M307.223 108.775 L 303.649 112.491 307.364 108.917 C 309.408 106.952,311.080 105.280,311.080 105.202 C 311.080 104.826,310.542 105.324,307.223 108.775 M492.240 108.519 C 490.861 110.140,490.266 111.005,490.917 110.441 C 492.154 109.371,495.298 105.572,494.948 105.572 C 494.837 105.572,493.618 106.898,492.240 108.519 M423.058 116.847 C 427.562 121.357,431.362 125.047,431.502 125.047 C 431.643 125.047,428.074 121.357,423.571 116.847 C 419.068 112.337,415.268 108.647,415.127 108.647 C 414.986 108.647,418.555 112.337,423.058 116.847 M288.787 127.097 C 285.413 130.479,282.768 133.247,282.909 133.247 C 283.050 133.247,285.926 130.479,289.299 127.097 C 292.673 123.714,295.318 120.947,295.177 120.947 C 295.036 120.947,292.160 123.714,288.787 127.097 M423.297 133.119 L 420.496 136.065 423.443 133.264 C 425.064 131.724,426.390 130.398,426.390 130.317 C 426.390 129.937,425.900 130.381,423.297 133.119 M415.115 141.190 C 413.870 142.459,412.967 143.497,413.108 143.497 C 413.249 143.497,414.383 142.459,415.627 141.190 C 416.872 139.922,417.775 138.884,417.634 138.884 C 417.494 138.884,416.360 139.922,415.115 141.190 M266.744 149.262 L 258.550 157.590 266.878 149.396 C 274.615 141.784,275.438 140.934,275.072 140.934 C 274.998 140.934,271.250 144.682,266.744 149.262 M400.767 155.538 C 400.106 156.241,399.662 156.903,399.781 157.008 C 399.900 157.113,400.533 156.537,401.189 155.729 C 402.656 153.919,402.397 153.803,400.767 155.538 M246.756 169.249 L 239.588 176.552 246.891 169.384 C 253.675 162.725,254.426 161.946,254.059 161.946 C 253.985 161.946,250.698 165.232,246.756 169.249 M224.726 191.158 C 221.352 194.540,218.707 197.308,218.848 197.308 C 218.989 197.308,221.865 194.540,225.238 191.158 C 228.612 187.775,231.257 185.008,231.116 185.008 C 230.975 185.008,228.099 187.775,224.726 191.158 M396.709 204.678 L 395.472 206.276 396.938 204.882 C 397.745 204.116,398.302 203.397,398.176 203.284 C 398.050 203.172,397.390 203.799,396.709 204.678 M203.194 212.810 L 196.539 219.601 203.329 212.946 C 207.064 209.286,210.120 206.230,210.120 206.155 C 210.120 205.788,209.376 206.503,203.194 212.810 M387.441 213.964 C 386.196 215.232,385.293 216.270,385.433 216.270 C 385.574 216.270,386.708 215.232,387.953 213.964 C 389.198 212.695,390.101 211.657,389.960 211.657 C 389.819 211.657,388.685 212.695,387.441 213.964 M382.316 219.088 C 381.071 220.357,380.168 221.395,380.309 221.395 C 380.450 221.395,381.583 220.357,382.828 219.088 C 384.073 217.820,384.976 216.782,384.835 216.782 C 384.694 216.782,383.561 217.820,382.316 219.088 M278.024 323.324 C 223.624 377.694,178.768 422.287,178.346 422.420 C 177.923 422.553,177.758 422.856,177.980 423.092 C 178.202 423.329,223.172 378.736,277.915 323.997 C 332.658 269.258,377.332 224.471,377.191 224.471 C 377.050 224.470,332.425 268.955,278.024 323.324 M182.695 233.310 L 175.527 240.613 182.830 233.445 C 189.614 226.786,190.365 226.007,189.998 226.007 C 189.924 226.007,186.637 229.293,182.695 233.310 M161.683 254.322 L 154.515 261.625 161.818 254.457 C 168.602 247.798,169.353 247.019,168.986 247.019 C 168.912 247.019,165.625 250.305,161.683 254.322 M118.896 297.115 L 86.867 329.273 119.025 297.244 C 136.712 279.628,151.184 265.157,151.184 265.086 C 151.184 264.726,148.669 267.221,118.896 297.115 M283.117 273.796 L 281.612 275.462 283.277 273.957 C 284.830 272.554,285.179 272.131,284.783 272.131 C 284.694 272.131,283.945 272.880,283.117 273.796 M262.626 294.296 L 260.600 296.474 262.778 294.448 C 264.804 292.564,265.192 292.118,264.804 292.118 C 264.720 292.118,263.740 293.098,262.626 294.296 M241.106 315.820 L 238.563 318.511 241.253 315.968 C 242.733 314.569,243.944 313.358,243.944 313.277 C 243.944 312.895,243.469 313.320,241.106 315.820 M142.984 317.486 C 141.739 318.754,140.836 319.792,140.977 319.792 C 141.118 319.792,142.252 318.754,143.497 317.486 C 144.741 316.218,145.645 315.180,145.504 315.180 C 145.363 315.180,144.229 316.218,142.984 317.486 M137.859 322.611 C 136.614 323.879,135.711 324.917,135.852 324.917 C 135.993 324.917,137.127 323.879,138.372 322.611 C 139.616 321.342,140.520 320.305,140.379 320.305 C 140.238 320.305,139.104 321.342,137.859 322.611 M131.439 329.145 L 127.866 332.861 131.581 329.287 C 135.032 325.968,135.531 325.430,135.155 325.430 C 135.077 325.430,133.405 327.102,131.439 329.145 M218.564 338.370 L 214.476 342.598 218.704 338.510 C 222.631 334.713,223.166 334.142,222.792 334.142 C 222.715 334.142,220.812 336.044,218.564 338.370 M83.316 338.022 C 83.127 338.773,83.072 339.487,83.193 339.607 C 83.314 339.728,83.567 339.212,83.755 338.461 C 83.944 337.710,83.999 336.997,83.878 336.876 C 83.757 336.755,83.504 337.271,83.316 338.022 M113.067 348.768 C 112.891 349.226,112.767 349.985,112.791 350.455 C 112.816 350.925,113.039 350.630,113.287 349.798 C 113.770 348.181,113.599 347.380,113.067 348.768 M80.268 349.793 C 80.092 350.251,79.968 351.010,79.992 351.480 C 80.016 351.950,80.239 351.655,80.488 350.823 C 80.971 349.206,80.800 348.405,80.268 349.793 M112.042 352.867 C 111.866 353.325,111.742 354.085,111.766 354.555 C 111.791 355.025,112.014 354.730,112.262 353.898 C 112.745 352.281,112.574 351.480,112.042 352.867 M199.093 357.844 L 193.464 363.610 199.230 357.981 C 202.401 354.886,204.995 352.291,204.995 352.216 C 204.995 351.846,204.321 352.489,199.093 357.844 M78.983 355.240 C 78.950 355.710,78.790 356.517,78.628 357.034 C 78.349 357.924,78.364 357.925,78.919 357.060 C 79.241 356.557,79.400 355.750,79.273 355.266 C 79.065 354.472,79.036 354.470,78.983 355.240 M111.017 356.967 C 110.841 357.425,110.717 358.185,110.741 358.655 C 110.766 359.125,110.989 358.830,111.237 357.998 C 111.720 356.381,111.549 355.580,111.017 356.967 M75.908 367.027 C 75.875 367.497,75.715 368.305,75.553 368.821 C 75.274 369.711,75.289 369.712,75.844 368.847 C 76.166 368.345,76.326 367.537,76.198 367.053 C 75.990 366.260,75.961 366.257,75.908 367.027 M74.883 371.127 C 74.850 371.597,74.690 372.405,74.528 372.921 C 74.249 373.811,74.264 373.812,74.819 372.947 C 75.141 372.445,75.301 371.637,75.173 371.153 C 74.965 370.360,74.936 370.357,74.883 371.127 M178.602 378.216 C 175.228 381.598,172.583 384.366,172.724 384.366 C 172.865 384.366,175.741 381.598,179.114 378.216 C 182.488 374.833,185.133 372.066,184.992 372.066 C 184.851 372.066,181.976 374.833,178.602 378.216 M73.858 375.227 C 73.825 375.697,73.665 376.504,73.503 377.021 C 73.224 377.911,73.239 377.912,73.794 377.047 C 74.116 376.544,74.276 375.737,74.148 375.253 C 73.940 374.459,73.911 374.457,73.858 375.227 M105.632 378.302 C 105.599 378.772,105.440 379.579,105.277 380.096 C 104.998 380.985,105.013 380.987,105.568 380.122 C 105.890 379.619,106.050 378.812,105.923 378.328 C 105.714 377.534,105.685 377.532,105.632 378.302 M72.833 379.327 C 72.800 379.797,72.641 380.604,72.478 381.121 C 72.199 382.010,72.214 382.012,72.769 381.146 C 73.091 380.644,73.251 379.837,73.123 379.353 C 72.915 378.559,72.886 378.557,72.833 379.327 M162.302 394.375 C 161.511 395.071,161.067 395.640,161.316 395.640 C 161.564 395.640,162.309 395.064,162.971 394.359 C 164.503 392.729,164.164 392.737,162.302 394.375 M67.392 400.253 C 67.200 400.859,67.158 401.470,67.299 401.611 C 67.439 401.752,67.712 401.371,67.905 400.765 C 68.097 400.159,68.139 399.548,67.998 399.407 C 67.857 399.266,67.585 399.647,67.392 400.253 M144.593 400.328 C 143.646 400.601,142.968 400.920,143.085 401.037 C 143.344 401.296,147.084 400.300,147.084 399.972 C 147.084 399.670,146.677 399.729,144.593 400.328 M97.180 411.291 C 97.004 411.749,96.880 412.509,96.904 412.979 C 96.928 413.449,97.151 413.153,97.400 412.322 C 97.883 410.704,97.712 409.904,97.180 411.291 M63.329 416.433 C 63.140 417.184,63.085 417.897,63.206 418.018 C 63.327 418.139,63.580 417.623,63.768 416.872 C 63.957 416.121,64.012 415.408,63.891 415.287 C 63.770 415.166,63.517 415.682,63.329 416.433 M60.281 428.203 C 60.105 428.661,59.981 429.421,60.005 429.891 C 60.029 430.361,60.252 430.065,60.501 429.234 C 60.984 427.617,60.813 426.816,60.281 428.203 M59.192 432.539 C 58.998 433.425,58.945 434.257,59.076 434.388 C 59.206 434.518,59.461 433.888,59.641 432.988 C 60.068 430.852,59.654 430.438,59.192 432.539 M58.030 439.202 C 58.030 440.188,58.135 440.592,58.264 440.099 C 58.393 439.605,58.393 438.798,58.264 438.305 C 58.135 437.812,58.030 438.215,58.030 439.202 M78.411 454.064 C 77.355 454.402,77.310 454.482,78.154 454.517 C 78.718 454.541,79.525 454.337,79.948 454.064 C 80.846 453.484,80.223 453.484,78.411 454.064 M72.901 454.943 C 73.676 455.061,74.945 455.061,75.720 454.943 C 76.495 454.826,75.861 454.730,74.311 454.730 C 72.760 454.730,72.126 454.826,72.901 454.943 M7.175 486.351 C 6.573 487.196,6.195 487.888,6.336 487.888 C 6.477 487.888,7.085 487.196,7.687 486.351 C 8.289 485.505,8.667 484.813,8.526 484.813 C 8.385 484.813,7.777 485.505,7.175 486.351 M3.734 496.344 C 3.738 497.753,3.837 498.269,3.955 497.490 C 4.073 496.711,4.070 495.558,3.948 494.928 C 3.827 494.297,3.730 494.935,3.734 496.344 M365.020 496.344 C 365.026 497.472,365.131 497.873,365.254 497.235 C 365.376 496.598,365.372 495.675,365.243 495.185 C 365.115 494.695,365.015 495.217,365.020 496.344 M6.662 505.639 C 6.662 505.913,7.527 506.931,8.584 507.903 L 10.506 509.669 8.712 507.625 C 7.726 506.500,6.861 505.482,6.790 505.361 C 6.720 505.240,6.662 505.366,6.662 505.639 M359.990 508.003 L 358.485 509.669 360.151 508.164 C 361.067 507.336,361.816 506.586,361.816 506.498 C 361.816 506.102,361.393 506.451,359.990 508.003 M10.762 509.643 C 10.762 509.783,11.454 510.257,12.300 510.694 C 13.145 511.131,13.837 511.374,13.837 511.233 C 13.837 511.092,13.145 510.619,12.300 510.181 C 11.454 509.744,10.762 509.502,10.762 509.643 M356.179 510.438 C 355.192 510.978,354.570 511.429,354.795 511.441 C 355.338 511.470,358.229 509.967,358.229 509.656 C 358.229 509.320,358.199 509.332,356.179 510.438 " stroke="none" fill="#747474" fill-rule="evenodd"></path><path id="path5" d="M340.016 75.464 L 337.473 78.154 340.164 75.611 C 342.664 73.248,343.089 72.773,342.707 72.773 C 342.626 72.773,341.415 73.984,340.016 75.464 M318.240 97.245 L 314.924 100.704 318.383 97.387 C 321.596 94.307,322.076 93.785,321.699 93.785 C 321.621 93.785,320.064 95.342,318.240 97.245 M297.995 117.488 L 294.937 120.691 298.140 117.632 C 299.901 115.950,301.343 114.508,301.343 114.429 C 301.343 114.050,300.837 114.512,297.995 117.488 M234.951 180.524 L 232.926 182.702 235.104 180.676 C 237.129 178.792,237.517 178.346,237.129 178.346 C 237.046 178.346,236.066 179.326,234.951 180.524 M213.419 202.048 L 211.914 203.714 213.579 202.209 C 214.495 201.381,215.245 200.631,215.245 200.543 C 215.245 200.147,214.822 200.496,213.419 202.048 M293.375 263.034 L 291.349 265.212 293.527 263.186 C 295.553 261.302,295.941 260.856,295.553 260.856 C 295.469 260.856,294.489 261.836,293.375 263.034 M272.363 284.046 L 270.337 286.224 272.515 284.198 C 274.541 282.314,274.929 281.868,274.541 281.868 C 274.457 281.868,273.477 282.848,272.363 284.046 M158.871 302.111 C 157.626 303.380,156.723 304.418,156.864 304.418 C 157.005 304.418,158.139 303.380,159.384 302.111 C 160.628 300.843,161.532 299.805,161.391 299.805 C 161.250 299.805,160.116 300.843,158.871 302.111 M251.351 305.058 L 249.325 307.236 251.503 305.210 C 253.529 303.326,253.917 302.880,253.529 302.880 C 253.445 302.880,252.465 303.860,251.351 305.058 M142.208 318.895 L 135.553 325.686 142.343 319.031 C 146.078 315.371,149.134 312.315,149.134 312.240 C 149.134 311.873,148.390 312.588,142.208 318.895 M238.307 317.999 C 237.062 319.267,236.159 320.305,236.300 320.305 C 236.441 320.305,237.574 319.267,238.819 317.999 C 240.064 316.730,240.967 315.692,240.826 315.692 C 240.685 315.692,239.552 316.730,238.307 317.999 M220.110 336.320 L 204.739 351.823 220.242 336.451 C 234.649 322.166,235.975 320.817,235.613 320.817 C 235.541 320.817,228.564 327.793,220.110 336.320 M120.940 340.164 L 114.028 347.210 121.075 340.299 C 127.621 333.879,128.354 333.117,127.987 333.117 C 127.912 333.117,124.741 336.288,120.940 340.164 M188.842 367.582 L 183.727 372.835 188.980 367.719 C 191.869 364.906,194.233 362.542,194.233 362.466 C 194.233 362.096,193.593 362.703,188.842 367.582 M167.828 388.594 L 163.740 392.822 167.968 388.734 C 171.895 384.937,172.429 384.366,172.056 384.366 C 171.979 384.366,170.076 386.268,167.828 388.594 " stroke="none" fill="#848484" fill-rule="evenodd"></path><path id="path6" d="M370.528 44.330 C 368.429 46.444,366.826 48.174,366.967 48.174 C 367.108 48.174,368.941 46.444,371.041 44.330 C 373.141 42.216,374.744 40.487,374.603 40.487 C 374.462 40.487,372.628 42.216,370.528 44.330 M283.125 272.771 L 281.099 274.950 283.277 272.924 C 285.303 271.040,285.691 270.593,285.303 270.593 C 285.220 270.593,284.239 271.574,283.125 272.771 M260.586 295.321 L 257.012 299.036 260.728 295.463 C 264.179 292.144,264.678 291.605,264.302 291.605 C 264.224 291.605,262.552 293.277,260.586 295.321 M251.119 304.674 C 249.874 305.942,248.971 306.980,249.112 306.980 C 249.253 306.980,250.387 305.942,251.631 304.674 C 252.876 303.405,253.779 302.368,253.638 302.368 C 253.498 302.368,252.364 303.405,251.119 304.674 M245.994 309.799 C 244.749 311.067,243.846 312.105,243.987 312.105 C 244.128 312.105,245.262 311.067,246.506 309.799 C 247.751 308.530,248.655 307.493,248.514 307.493 C 248.373 307.493,247.239 308.530,245.994 309.799 M235.994 319.920 L 228.826 327.223 236.129 320.055 C 242.913 313.397,243.664 312.617,243.297 312.617 C 243.222 312.617,239.936 315.904,235.994 319.920 M146.059 315.436 C 144.814 316.704,143.911 317.742,144.052 317.742 C 144.193 317.742,145.327 316.704,146.571 315.436 C 147.816 314.168,148.719 313.130,148.579 313.130 C 148.438 313.130,147.304 314.168,146.059 315.436 M140.934 320.561 C 139.689 321.829,138.786 322.867,138.927 322.867 C 139.068 322.867,140.202 321.829,141.447 320.561 C 142.691 319.293,143.595 318.255,143.454 318.255 C 143.313 318.255,142.179 319.293,140.934 320.561 M131.421 330.170 L 129.916 331.836 131.581 330.330 C 133.134 328.927,133.482 328.504,133.086 328.504 C 132.998 328.504,132.249 329.254,131.421 330.170 M222.657 333.245 L 220.113 335.936 222.804 333.392 C 224.284 331.994,225.495 330.783,225.495 330.702 C 225.495 330.319,225.020 330.745,222.657 333.245 M124.266 337.345 L 120.178 341.573 124.406 337.485 C 128.333 333.688,128.868 333.117,128.494 333.117 C 128.417 333.117,126.515 335.019,124.266 337.345 M117.360 344.135 C 116.115 345.404,115.212 346.442,115.353 346.442 C 115.493 346.442,116.627 345.404,117.872 344.135 C 119.117 342.867,120.020 341.829,119.879 341.829 C 119.738 341.829,118.604 342.867,117.360 344.135 M210.344 345.545 L 208.839 347.210 210.504 345.705 C 212.057 344.302,212.405 343.879,212.009 343.879 C 211.921 343.879,211.172 344.629,210.344 345.545 " stroke="none" fill="#c4c4c4" fill-rule="evenodd"></path><path id="path7" d="M427.415 1.048 C 426.853 1.428,427.060 1.476,428.183 1.225 C 430.068 0.803,430.477 0.510,429.166 0.520 C 428.625 0.525,427.837 0.762,427.415 1.048 M414.225 47.277 C 408.385 53.133,407.049 54.732,407.480 55.349 C 407.958 56.032,407.992 56.032,407.780 55.349 C 407.630 54.866,410.233 51.865,414.781 47.277 C 418.763 43.260,421.905 39.974,421.764 39.974 C 421.623 39.974,418.231 43.260,414.225 47.277 M508.644 66.145 C 508.644 70.054,508.801 72.856,508.992 72.372 C 509.466 71.174,509.490 60.363,509.020 59.627 C 508.813 59.303,508.644 62.235,508.644 66.145 M475.757 65.855 C 475.759 67.828,475.851 68.572,475.962 67.509 C 476.073 66.446,476.072 64.831,475.958 63.921 C 475.845 63.012,475.754 63.882,475.757 65.855 M315.692 145.931 L 248.300 213.451 315.820 146.060 C 378.594 83.406,383.570 78.411,383.212 78.411 C 383.141 78.411,352.757 108.795,315.692 145.931 M460.689 94.559 C 456.863 98.361,453.868 101.473,454.034 101.473 C 454.199 101.473,457.441 98.359,461.239 94.554 C 465.036 90.749,468.031 87.638,467.894 87.640 C 467.757 87.643,464.515 90.756,460.689 94.559 M409.456 104.163 C 410.713 105.502,411.808 106.597,411.890 106.597 C 412.275 106.597,411.868 106.137,409.606 104.014 L 407.171 101.729 409.456 104.163 M412.552 107.251 C 412.552 107.328,414.340 109.116,416.524 111.223 L 420.496 115.053 416.665 111.082 C 413.107 107.393,412.552 106.876,412.552 107.251 M492.725 109.288 L 491.219 110.954 492.885 109.448 C 493.801 108.620,494.550 107.871,494.550 107.783 C 494.550 107.387,494.128 107.735,492.725 109.288 M427.667 122.365 L 430.212 125.064 404.855 150.552 L 379.498 176.039 405.119 150.546 L 430.739 125.052 427.930 122.359 L 425.122 119.666 427.667 122.365 M375.383 180.011 L 371.810 183.727 375.525 180.153 C 377.569 178.188,379.241 176.516,379.241 176.438 C 379.241 176.062,378.703 176.560,375.383 180.011 M224.201 190.773 L 220.113 195.001 224.341 190.914 C 226.667 188.665,228.569 186.763,228.569 186.686 C 228.569 186.312,227.998 186.847,224.201 190.773 M355.898 199.486 L 353.873 201.664 356.051 199.638 C 358.076 197.754,358.464 197.308,358.077 197.308 C 357.993 197.308,357.013 198.288,355.898 199.486 M202.678 212.298 L 198.076 217.038 202.817 212.437 C 207.220 208.163,207.791 207.557,207.419 207.557 C 207.342 207.557,205.209 209.691,202.678 212.298 M245.482 216.013 C 244.237 217.282,243.333 218.320,243.474 218.320 C 243.615 218.320,244.749 217.282,245.994 216.013 C 247.239 214.745,248.142 213.707,248.001 213.707 C 247.860 213.707,246.726 214.745,245.482 216.013 M334.886 220.498 L 332.861 222.676 335.039 220.650 C 337.064 218.766,337.452 218.320,337.065 218.320 C 336.981 218.320,336.001 219.300,334.886 220.498 M236.513 224.982 C 233.139 228.364,230.494 231.132,230.635 231.132 C 230.776 231.132,233.652 228.364,237.025 224.982 C 240.399 221.600,243.044 218.832,242.903 218.832 C 242.762 218.832,239.887 221.600,236.513 224.982 M182.180 232.797 L 177.064 238.050 182.317 232.935 C 185.207 230.122,187.570 227.758,187.570 227.682 C 187.570 227.311,186.931 227.918,182.180 232.797 M215.501 245.994 C 212.127 249.376,209.482 252.144,209.623 252.144 C 209.764 252.144,212.640 249.376,216.013 245.994 C 219.387 242.612,222.032 239.844,221.891 239.844 C 221.750 239.844,218.875 242.612,215.501 245.994 M160.912 254.066 L 155.540 259.575 161.049 254.203 C 166.166 249.213,166.791 248.556,166.421 248.556 C 166.346 248.556,163.867 251.036,160.912 254.066 M194.993 266.622 L 189.364 272.387 195.130 266.758 C 198.301 263.663,200.895 261.068,200.895 260.993 C 200.895 260.623,200.221 261.266,194.993 266.622 M336.936 265.597 L 334.911 267.775 337.089 265.749 C 338.287 264.635,339.267 263.655,339.267 263.571 C 339.267 263.183,338.820 263.571,336.936 265.597 M140.668 274.309 L 135.553 279.562 140.806 274.447 C 143.695 271.633,146.059 269.269,146.059 269.194 C 146.059 268.823,145.419 269.430,140.668 274.309 M176.296 285.199 C 175.051 286.468,174.148 287.505,174.289 287.505 C 174.430 287.505,175.563 286.468,176.808 285.199 C 178.053 283.931,178.956 282.893,178.815 282.893 C 178.674 282.893,177.541 283.931,176.296 285.199 M315.924 286.609 L 313.899 288.787 316.077 286.761 C 317.275 285.647,318.255 284.667,318.255 284.583 C 318.255 284.195,317.808 284.583,315.924 286.609 M119.143 295.833 L 114.541 300.574 119.281 295.972 C 121.889 293.441,124.022 291.308,124.022 291.232 C 124.022 290.860,123.417 291.431,119.143 295.833 M295.430 307.108 L 292.887 309.799 295.577 307.256 C 297.057 305.857,298.268 304.646,298.268 304.565 C 298.268 304.183,297.793 304.608,295.430 307.108 M98.642 316.333 L 94.554 320.561 98.782 316.473 C 101.107 314.225,103.010 312.322,103.010 312.245 C 103.010 311.871,102.439 312.406,98.642 316.333 M273.909 328.633 L 270.850 331.836 274.053 328.777 C 275.814 327.094,277.256 325.653,277.256 325.574 C 277.256 325.195,276.750 325.657,273.909 328.633 M252.897 349.645 L 249.838 352.848 253.041 349.789 C 254.802 348.106,256.244 346.665,256.244 346.586 C 256.244 346.207,255.738 346.669,252.897 349.645 M232.399 370.144 L 228.826 373.860 232.541 370.286 C 235.992 366.967,236.491 366.429,236.115 366.429 C 236.037 366.429,234.365 368.101,232.399 370.144 M178.070 377.388 C 176.252 379.276,176.083 380.082,177.866 378.360 C 178.806 377.453,179.471 376.619,179.344 376.507 C 179.218 376.395,178.645 376.791,178.070 377.388 M222.932 379.497 C 221.687 380.765,220.784 381.803,220.925 381.803 C 221.066 381.803,222.200 380.765,223.445 379.497 C 224.689 378.229,225.593 377.191,225.452 377.191 C 225.311 377.191,224.177 378.229,222.932 379.497 M217.807 384.622 C 216.562 385.890,215.659 386.928,215.800 386.928 C 215.941 386.928,217.075 385.890,218.320 384.622 C 219.565 383.353,220.468 382.316,220.327 382.316 C 220.186 382.316,219.052 383.353,217.807 384.622 M206.014 396.537 L 197.051 405.634 206.148 396.671 C 211.151 391.741,215.245 387.648,215.245 387.574 C 215.245 387.209,214.342 388.086,206.014 396.537 M103.069 391.627 C 103.037 392.097,102.877 392.904,102.715 393.420 C 102.435 394.310,102.451 394.312,103.006 393.446 C 103.328 392.944,103.487 392.137,103.360 391.652 C 103.152 390.859,103.123 390.856,103.069 391.627 M190.389 412.040 C 187.016 415.422,184.371 418.190,184.512 418.190 C 184.652 418.190,187.528 415.422,190.902 412.040 C 194.275 408.658,196.920 405.890,196.779 405.890 C 196.638 405.890,193.763 408.658,190.389 412.040 M57.552 439.202 C 57.552 440.752,57.648 441.386,57.766 440.611 C 57.883 439.836,57.883 438.568,57.766 437.792 C 57.648 437.017,57.552 437.652,57.552 439.202 M60.986 449.612 C 60.986 449.700,61.736 450.450,62.652 451.277 L 64.317 452.783 62.812 451.117 C 61.409 449.565,60.986 449.216,60.986 449.612 M365.660 496.342 C 365.660 497.837,365.833 498.955,366.044 498.825 C 366.537 498.523,366.531 494.993,366.036 494.215 C 365.829 493.889,365.660 494.846,365.660 496.342 M2.611 496.344 C 2.593 497.753,2.773 499.214,3.012 499.591 C 3.265 499.991,3.352 499.140,3.219 497.541 C 2.909 493.786,2.650 493.275,2.611 496.344 " stroke="none" fill="#d4d4d4" fill-rule="evenodd"></path><path id="path8" d="M414.859 63.036 C 415.960 64.163,416.976 65.086,417.117 65.086 C 417.258 65.086,416.472 64.163,415.371 63.036 C 414.270 61.908,413.254 60.986,413.113 60.986 C 412.972 60.986,413.758 61.908,414.859 63.036 M390.003 165.790 C 388.758 167.058,387.855 168.096,387.996 168.096 C 388.137 168.096,389.271 167.058,390.515 165.790 C 391.760 164.521,392.664 163.484,392.523 163.484 C 392.382 163.484,391.248 164.521,390.003 165.790 M383.052 172.836 L 381.547 174.502 383.213 172.997 C 384.129 172.169,384.878 171.419,384.878 171.331 C 384.878 170.935,384.455 171.284,383.052 172.836 M429.176 172.836 L 427.671 174.502 429.336 172.997 C 430.252 172.169,431.002 171.419,431.002 171.331 C 431.002 170.935,430.579 171.284,429.176 172.836 M365.134 190.773 L 361.560 194.489 365.275 190.915 C 367.319 188.950,368.991 187.278,368.991 187.200 C 368.991 186.824,368.453 187.322,365.134 190.773 M408.164 193.848 L 406.659 195.514 408.324 194.009 C 409.240 193.181,409.990 192.431,409.990 192.343 C 409.990 191.947,409.567 192.296,408.164 193.848 M345.649 210.248 L 343.623 212.426 345.801 210.400 C 347.827 208.516,348.215 208.070,347.827 208.070 C 347.743 208.070,346.763 209.050,345.649 210.248 M324.637 231.260 L 322.611 233.438 324.789 231.412 C 326.815 229.528,327.203 229.082,326.815 229.082 C 326.731 229.082,325.751 230.062,324.637 231.260 " stroke="none" fill="#bcbcbc" fill-rule="evenodd"></path></g></svg>