<svg id="svg" version="1.1" xmlns="http://www.w3.org/2000/svg" xmlns:xlink="http://www.w3.org/1999/xlink" width="513" height="512" ><g id="svgg"><path id="path0" d="M205.251 0.512 C 205.077 0.794,204.199 1.027,203.299 1.031 C 194.131 1.062,181.472 11.530,178.232 21.759 C 176.860 26.091,176.650 28.792,176.356 45.868 L 176.039 64.317 124.791 64.582 L 73.542 64.846 70.354 65.998 C 58.171 70.402,50.800 79.528,48.706 92.802 C 48.001 97.268,48.017 127.301,48.727 131.650 C 49.618 137.116,51.949 144.009,52.907 144.009 C 53.122 144.009,53.299 144.297,53.299 144.650 C 53.300 145.002,53.900 145.982,54.634 146.828 C 55.367 147.673,56.347 148.830,56.811 149.397 C 60.781 154.254,67.373 157.691,75.848 159.325 L 80.204 160.164 80.483 308.523 C 80.788 471.013,80.548 459.103,83.719 468.516 C 85.406 473.525,89.065 481.110,91.066 483.750 C 91.403 484.194,92.734 485.979,94.025 487.718 C 100.337 496.221,112.298 504.790,123.253 508.656 C 125.875 509.582,131.004 510.819,135.297 511.562 C 140.023 512.379,368.779 512.783,373.860 511.983 C 385.630 510.129,391.808 508.049,401.137 502.798 C 407.400 499.273,415.702 491.271,421.146 483.510 C 424.005 479.435,427.932 470.627,429.362 465.082 C 429.652 463.955,430.195 462.110,430.567 460.983 C 431.118 459.311,431.291 431.320,431.507 309.548 L 431.771 160.164 436.127 159.293 C 444.342 157.650,447.186 156.437,451.895 152.567 C 458.094 147.474,461.352 141.660,463.248 132.311 C 464.580 125.742,463.667 88.868,462.135 87.336 C 461.924 87.125,461.751 86.517,461.751 85.986 C 461.751 82.025,453.454 71.905,447.596 68.722 C 439.898 64.539,444.658 64.861,388.209 64.710 C 360.586 64.637,337.467 64.456,336.832 64.309 L 335.679 64.041 335.679 47.233 C 335.679 27.053,335.141 23.187,331.386 16.400 C 327.091 8.638,315.868 1.025,308.719 1.025 C 307.796 1.025,306.898 0.794,306.724 0.512 C 306.286 -0.195,205.689 -0.195,205.251 0.512 M292.509 32.244 C 292.999 32.502,294.273 33.093,295.341 33.558 C 299.057 35.176,302.272 39.128,303.854 44.022 C 304.809 46.975,304.602 63.880,303.607 64.262 C 302.346 64.746,208.925 64.613,208.157 64.126 C 206.754 63.236,207.550 44.893,209.139 41.505 C 210.598 38.394,214.091 34.652,216.508 33.609 C 217.364 33.240,218.640 32.692,219.345 32.391 C 220.972 31.696,291.202 31.554,292.509 32.244 M420.600 96.420 C 424.495 98.008,425.306 98.500,427.385 100.538 C 435.331 108.327,433.016 121.978,422.906 126.943 L 419.984 128.378 259.062 128.526 C 155.197 128.621,96.772 128.494,94.280 128.167 C 76.898 125.889,74.487 102.875,90.967 96.548 C 93.169 95.702,418.530 95.576,420.600 96.420 M400.253 306.581 L 400.253 453.266 399.177 456.868 C 396.195 466.853,386.972 476.989,379.223 478.796 C 378.528 478.959,376.691 479.453,375.141 479.896 C 371.044 481.066,141.542 481.143,137.244 479.976 C 132.395 478.659,131.377 478.284,128.834 476.876 C 119.968 471.966,115.018 465.234,112.248 454.320 C 111.663 452.015,111.481 160.821,112.064 160.238 C 112.252 160.050,177.171 159.896,256.329 159.896 L 400.253 159.896 400.253 306.581 M171.325 225.450 C 166.401 227.128,162.628 231.020,161.172 235.921 C 160.025 239.783,160.028 433.041,161.175 436.822 C 165.858 452.259,186.857 451.592,191.156 435.871 C 191.555 434.411,191.673 405.416,191.565 335.167 L 191.414 236.513 190.319 234.144 C 186.848 226.639,178.733 222.924,171.325 225.450 M252.400 225.061 C 247.234 226.777,243.744 229.742,241.708 234.144 L 240.613 236.513 240.467 335.167 C 240.354 411.753,240.462 434.332,240.949 436.108 C 244.928 450.620,263.991 452.315,270.283 438.715 L 271.362 436.383 271.495 337.051 L 271.629 237.719 270.421 234.730 C 267.404 227.259,259.137 222.824,252.400 225.061 M332.348 225.068 C 326.044 227.192,322.874 230.407,320.861 236.718 C 320.078 239.171,320.075 433.715,320.858 436.179 C 325.412 450.516,343.097 452.279,350.135 439.097 L 351.310 436.896 351.310 336.448 L 351.310 236.000 350.159 233.694 C 346.783 226.934,338.589 222.966,332.348 225.068 " stroke="none" fill="#040404" fill-rule="evenodd"></path><path id="path1" d="M0.000 256.244 L 0.000 512.488 67.008 512.419 C 104.654 512.381,133.005 512.163,131.709 511.922 C 130.441 511.686,128.536 511.346,127.477 511.165 C 126.417 510.985,125.423 510.632,125.268 510.381 C 125.113 510.130,124.536 509.925,123.985 509.925 C 123.434 509.925,122.583 509.714,122.093 509.456 C 121.604 509.197,120.281 508.596,119.153 508.119 C 114.841 506.296,111.722 504.662,111.722 504.228 C 111.722 503.979,111.481 503.775,111.187 503.775 C 108.715 503.775,92.760 489.607,92.760 487.412 C 92.760 487.157,92.574 486.872,92.346 486.778 C 91.747 486.531,88.660 481.911,88.660 481.262 C 88.660 480.960,88.467 480.713,88.230 480.713 C 87.387 480.713,83.029 470.571,81.734 465.595 C 79.352 456.446,79.455 463.550,79.445 307.364 L 79.436 160.409 76.391 160.409 C 74.716 160.409,73.204 160.178,73.029 159.896 C 72.855 159.614,72.147 159.384,71.455 159.384 C 70.763 159.384,69.796 159.177,69.307 158.925 C 68.818 158.673,66.899 157.735,65.043 156.842 C 60.853 154.824,57.536 152.169,55.284 149.030 C 54.333 147.704,53.382 146.609,53.171 146.595 C 52.959 146.582,52.786 146.245,52.786 145.845 C 52.786 145.446,52.613 145.043,52.402 144.949 C 52.190 144.855,51.473 143.625,50.808 142.215 C 50.143 140.806,49.394 139.252,49.143 138.763 C 48.892 138.274,48.686 137.307,48.686 136.615 C 48.686 135.923,48.456 135.215,48.174 135.040 C 47.845 134.837,47.661 126.805,47.661 112.625 C 47.661 91.259,47.805 88.859,49.262 85.977 C 49.509 85.487,49.711 84.784,49.711 84.413 C 49.711 83.465,50.915 80.982,51.377 80.977 C 51.588 80.975,51.761 80.726,51.761 80.425 C 51.761 76.698,62.166 67.905,69.857 65.133 L 73.542 63.805 124.663 63.662 L 175.783 63.520 175.783 44.565 C 175.783 34.140,175.991 25.210,176.246 24.721 C 176.500 24.231,177.009 22.793,177.376 21.524 C 179.203 15.207,185.226 7.618,191.139 4.180 C 194.771 2.068,195.889 1.537,196.708 1.537 C 197.207 1.537,197.834 1.326,198.102 1.068 C 198.370 0.810,199.165 0.496,199.870 0.369 C 200.575 0.243,155.892 0.108,100.576 0.070 L 0.000 0.000 0.000 256.244 M311.336 0.234 C 311.618 0.319,312.886 0.695,314.155 1.070 C 323.399 3.804,331.835 12.430,335.120 22.506 C 336.128 25.599,336.192 26.908,336.192 44.657 L 336.192 63.520 387.312 63.662 C 442.336 63.816,439.536 63.689,445.352 66.281 C 447.966 67.446,452.856 70.952,455.195 73.338 C 458.482 76.692,462.264 82.688,462.264 84.546 C 462.264 85.084,462.494 85.667,462.776 85.842 C 463.058 86.016,463.289 86.708,463.289 87.379 C 463.289 88.051,463.519 88.742,463.801 88.917 C 464.130 89.120,464.314 97.368,464.314 111.979 C 464.314 126.589,464.130 134.837,463.801 135.040 C 463.519 135.215,463.289 136.022,463.289 136.834 C 463.289 137.647,463.058 138.454,462.776 138.628 C 462.494 138.802,462.264 139.508,462.264 140.196 C 462.264 140.884,462.089 141.447,461.876 141.447 C 461.663 141.447,461.163 142.196,460.766 143.112 C 458.793 147.655,453.049 153.758,448.579 156.060 C 446.945 156.901,445.531 157.763,445.437 157.974 C 445.343 158.186,444.821 158.359,444.277 158.359 C 443.733 158.359,442.887 158.561,442.398 158.808 C 440.424 159.805,437.709 160.409,435.194 160.409 L 432.539 160.409 432.539 307.998 C 432.539 400.349,432.355 456.405,432.048 457.772 C 431.777 458.974,431.292 461.341,430.969 463.032 C 430.646 464.724,430.199 466.569,429.975 467.132 C 429.751 467.696,429.291 468.965,428.952 469.951 C 427.440 474.355,424.367 480.713,423.750 480.713 C 423.511 480.713,423.315 481.175,423.315 481.738 C 423.315 482.302,423.084 482.763,422.802 482.763 C 422.520 482.763,422.290 483.109,422.290 483.532 C 422.290 483.955,422.059 484.301,421.777 484.301 C 421.495 484.301,421.265 484.647,421.265 485.069 C 421.265 485.492,421.084 485.838,420.863 485.838 C 420.642 485.838,420.018 486.588,419.477 487.504 C 418.203 489.663,409.202 498.664,407.043 499.938 C 406.127 500.479,405.378 501.102,405.378 501.323 C 405.378 501.544,405.032 501.725,404.609 501.725 C 404.186 501.725,403.840 501.956,403.840 502.238 C 403.840 502.520,403.494 502.750,403.071 502.750 C 402.649 502.750,402.301 502.923,402.299 503.135 C 402.296 503.346,401.778 503.776,401.146 504.090 C 400.514 504.404,398.497 505.415,396.665 506.336 C 394.833 507.257,392.758 508.237,392.053 508.515 C 391.348 508.793,390.371 509.223,389.882 509.472 C 389.392 509.721,388.541 509.925,387.990 509.925 C 387.439 509.925,386.862 510.130,386.707 510.381 C 386.552 510.632,385.558 510.985,384.499 511.165 C 383.439 511.346,381.534 511.686,380.266 511.922 C 378.971 512.163,407.559 512.381,445.480 512.419 L 513.000 512.488 513.000 256.244 L 513.000 0.000 411.912 0.040 C 356.313 0.063,311.054 0.150,311.336 0.234 M222.420 32.795 C 221.997 33.071,221.014 33.300,220.235 33.304 C 218.812 33.312,217.168 34.039,215.865 35.237 C 215.480 35.591,214.730 36.113,214.199 36.398 C 210.402 38.430,208.582 44.604,208.582 55.456 L 208.582 63.548 256.047 63.548 L 303.512 63.548 303.277 53.427 C 303.035 42.994,303.029 42.962,300.578 39.205 C 298.636 36.228,294.954 33.821,291.093 33.004 C 288.275 32.408,223.317 32.210,222.420 32.795 M94.298 96.859 C 93.875 97.133,92.779 97.360,91.863 97.365 C 90.947 97.369,90.198 97.603,90.198 97.885 C 90.198 98.167,89.855 98.398,89.435 98.398 C 88.125 98.398,84.774 101.458,83.077 104.204 C 77.413 113.368,82.498 124.767,93.273 127.064 C 95.404 127.518,135.548 127.627,257.781 127.509 L 419.471 127.353 422.290 126.009 C 432.309 121.232,434.391 106.862,425.974 100.578 C 424.934 99.802,424.007 98.993,423.913 98.782 C 423.819 98.571,423.300 98.398,422.759 98.398 C 422.219 98.398,421.777 98.191,421.777 97.939 C 421.777 96.650,96.278 95.577,94.298 96.859 M112.429 305.058 C 112.619 443.018,112.731 455.213,113.817 456.345 C 114.074 456.612,114.285 457.261,114.285 457.786 C 114.285 464.081,128.437 478.151,134.769 478.151 C 135.308 478.151,135.874 478.353,136.027 478.601 C 136.721 479.724,149.443 479.857,255.988 479.857 C 362.532 479.857,375.254 479.724,375.948 478.601 C 376.101 478.353,376.891 478.151,377.703 478.151 C 378.516 478.151,379.323 477.920,379.497 477.638 C 379.671 477.356,380.261 477.126,380.808 477.126 C 381.356 477.126,381.803 476.895,381.803 476.613 C 381.803 476.332,382.050 476.101,382.351 476.101 C 383.946 476.101,391.242 469.846,393.514 466.532 C 395.472 463.675,397.690 459.121,397.690 457.958 C 397.690 457.338,397.900 456.612,398.156 456.345 C 399.254 455.195,399.365 443.162,399.550 305.314 L 399.746 160.409 255.988 160.409 L 112.229 160.409 112.429 305.058 M181.164 224.470 C 181.339 224.751,181.929 224.982,182.476 224.982 C 183.023 224.982,183.471 225.213,183.471 225.495 C 183.471 225.776,183.784 226.007,184.167 226.007 C 185.514 226.007,189.418 230.034,190.793 232.841 L 192.183 235.680 192.183 336.433 L 192.183 437.186 190.884 439.749 C 189.395 442.688,186.109 446.081,183.782 447.084 C 179.896 448.758,179.141 448.939,176.039 448.939 C 172.938 448.939,172.183 448.758,168.296 447.084 C 165.963 446.078,162.698 442.701,161.067 439.604 L 159.640 436.896 159.640 336.448 L 159.640 236.000 161.078 233.072 C 162.498 230.180,166.534 226.007,167.912 226.007 C 168.295 226.007,168.608 225.776,168.608 225.495 C 168.608 225.213,169.056 224.982,169.603 224.982 C 170.150 224.982,170.740 224.751,170.915 224.470 C 171.089 224.187,173.387 223.957,176.039 223.957 C 178.692 223.957,180.990 224.187,181.164 224.470 M261.112 224.470 C 261.287 224.751,261.877 224.982,262.424 224.982 C 262.971 224.982,263.419 225.213,263.419 225.495 C 263.419 225.776,263.732 226.007,264.115 226.007 C 265.493 226.007,269.529 230.180,270.949 233.072 L 272.387 236.000 272.387 336.448 L 272.387 436.896 270.914 439.714 C 265.544 449.987,252.369 452.158,244.309 444.098 C 243.066 442.855,241.764 441.072,241.416 440.136 C 241.068 439.199,240.572 438.033,240.314 437.543 C 239.700 436.380,239.683 236.047,240.297 234.840 C 240.546 234.351,241.065 233.260,241.450 232.416 C 242.317 230.517,246.791 226.007,247.808 226.007 C 248.220 226.007,248.556 225.776,248.556 225.495 C 248.556 225.213,249.004 224.982,249.551 224.982 C 250.098 224.982,250.688 224.751,250.863 224.470 C 251.037 224.187,253.335 223.957,255.988 223.957 C 258.640 223.957,260.938 224.187,261.112 224.470 M341.060 224.470 C 341.235 224.751,341.825 224.982,342.372 224.982 C 342.919 224.982,343.367 225.213,343.367 225.495 C 343.367 225.776,343.719 226.007,344.149 226.007 C 346.209 226.007,350.993 231.932,352.010 235.744 C 352.481 237.510,352.591 261.350,352.480 337.473 L 352.335 436.896 351.147 439.378 C 347.693 446.596,337.857 451.031,331.219 448.363 C 328.603 447.311,327.230 446.639,326.640 446.120 C 326.319 445.839,325.627 445.242,325.102 444.794 C 323.610 443.522,322.163 441.634,321.398 439.963 C 321.013 439.122,320.494 438.033,320.245 437.543 C 319.591 436.258,319.650 235.232,320.305 235.232 C 320.587 235.232,320.817 234.803,320.817 234.278 C 320.817 232.281,326.113 226.079,327.864 226.026 C 328.216 226.016,328.504 225.776,328.504 225.495 C 328.504 225.213,329.081 224.982,329.786 224.982 C 330.490 224.982,331.067 224.751,331.067 224.470 C 331.067 224.164,333.021 223.957,335.905 223.957 C 338.578 223.957,340.885 224.186,341.060 224.470 " stroke="none" fill="#fbfbfb" fill-rule="evenodd"></path><path id="path2" d="M47.892 112.235 C 47.892 122.241,47.961 126.335,48.045 121.331 C 48.129 116.328,48.129 108.141,48.045 103.138 C 47.961 98.135,47.892 102.228,47.892 112.235 M80.067 112.235 C 80.067 113.221,80.172 113.625,80.301 113.132 C 80.430 112.638,80.430 111.831,80.301 111.338 C 80.172 110.845,80.067 111.248,80.067 112.235 M347.178 443.942 L 345.673 445.608 347.338 444.103 C 348.254 443.275,349.004 442.525,349.004 442.437 C 349.004 442.041,348.581 442.390,347.178 443.942 " stroke="none" fill="#a4a4a4" fill-rule="evenodd"></path><path id="path3" d="M202.689 0.512 C 201.825 0.884,201.921 0.959,203.299 0.989 C 204.199 1.009,205.077 0.794,205.251 0.512 C 205.631 -0.102,204.119 -0.102,202.689 0.512 M306.724 0.512 C 306.898 0.794,307.776 1.021,308.676 1.017 C 309.920 1.011,310.127 0.891,309.542 0.512 C 308.526 -0.144,306.318 -0.144,306.724 0.512 M323.944 7.520 C 323.973 7.753,325.174 8.981,326.614 10.250 C 328.499 11.911,328.883 12.122,327.985 11.005 C 326.536 9.202,323.868 6.901,323.944 7.520 M185.493 9.609 L 183.727 11.531 185.771 9.737 C 186.895 8.751,187.914 7.886,188.035 7.815 C 188.155 7.745,188.030 7.687,187.756 7.687 C 187.483 7.687,186.464 8.552,185.493 9.609 M179.710 17.363 C 178.959 18.742,178.350 20.069,178.355 20.313 C 178.360 20.556,179.052 19.507,179.894 17.981 C 180.735 16.455,181.344 15.128,181.248 15.032 C 181.152 14.936,180.460 15.985,179.710 17.363 M333.435 20.756 C 333.618 21.601,333.970 22.639,334.218 23.062 C 334.506 23.554,334.549 23.277,334.336 22.293 C 334.153 21.448,333.801 20.410,333.553 19.987 C 333.265 19.495,333.223 19.772,333.435 20.756 M335.909 47.149 C 335.909 56.591,335.978 60.454,336.063 55.733 C 336.147 51.012,336.147 43.286,336.063 38.565 C 335.978 33.843,335.909 37.706,335.909 47.149 M219.884 32.259 C 219.404 32.563,219.947 32.626,221.421 32.437 C 222.675 32.277,223.797 32.062,223.914 31.960 C 224.395 31.542,220.569 31.826,219.884 32.259 M288.274 32.034 C 289.446 32.442,292.539 32.554,292.308 32.180 C 292.170 31.957,291.091 31.792,289.910 31.815 C 288.728 31.837,287.992 31.936,288.274 32.034 M296.802 34.805 C 297.467 35.345,298.110 35.688,298.230 35.568 C 298.494 35.307,296.658 33.864,296.033 33.840 C 295.790 33.832,296.136 34.266,296.802 34.805 M304.119 54.580 C 304.119 59.935,304.195 62.057,304.287 59.294 C 304.380 56.531,304.379 52.149,304.287 49.557 C 304.194 46.964,304.118 49.224,304.119 54.580 M207.770 54.836 C 207.770 60.051,207.846 62.184,207.939 59.577 C 208.032 56.969,208.032 52.703,207.939 50.096 C 207.846 47.488,207.770 49.622,207.770 54.836 M125.218 64.051 C 97.266 64.198,74.280 64.432,74.139 64.573 C 73.999 64.714,96.749 64.764,124.696 64.685 C 156.540 64.594,175.694 64.355,176.005 64.044 C 176.278 63.772,176.397 63.602,176.270 63.667 C 176.143 63.732,153.170 63.905,125.218 64.051 M231.990 64.445 C 245.005 64.521,266.453 64.521,279.651 64.445 C 292.850 64.369,282.201 64.307,255.988 64.307 C 229.774 64.307,218.975 64.369,231.990 64.445 M343.623 64.427 C 360.540 64.758,438.157 64.798,436.334 64.475 C 435.234 64.280,412.309 64.158,385.391 64.203 C 358.472 64.249,339.677 64.350,343.623 64.427 M64.958 67.941 C 63.042 68.981,63.159 69.414,65.086 68.417 C 65.932 67.980,66.623 67.513,66.623 67.379 C 66.623 67.049,66.568 67.068,64.958 67.941 M445.352 67.366 C 445.352 67.507,446.044 67.980,446.889 68.417 C 447.735 68.854,448.427 69.097,448.427 68.956 C 448.427 68.815,447.735 68.342,446.889 67.905 C 446.044 67.467,445.352 67.225,445.352 67.366 M60.698 70.850 L 59.192 72.513 60.730 71.242 C 61.575 70.542,62.486 69.793,62.754 69.578 C 63.056 69.334,63.044 69.186,62.722 69.186 C 62.436 69.186,61.525 69.934,60.698 70.850 M450.843 70.821 C 455.517 74.762,455.750 74.918,452.814 72.141 C 451.106 70.525,449.527 69.199,449.306 69.194 C 449.084 69.190,449.776 69.922,450.843 70.821 M56.084 75.092 C 54.754 76.649,53.756 77.997,53.866 78.088 C 53.977 78.179,55.170 76.905,56.518 75.257 C 59.628 71.456,59.298 71.330,56.084 75.092 M462.897 89.685 C 462.897 90.390,463.074 91.658,463.289 92.504 C 463.638 93.875,463.680 93.903,463.680 92.760 C 463.680 92.056,463.504 90.787,463.289 89.942 C 462.940 88.570,462.897 88.542,462.897 89.685 M91.794 96.300 C 91.360 96.575,92.057 96.645,93.588 96.481 C 94.965 96.332,96.188 96.127,96.305 96.023 C 96.769 95.615,92.459 95.879,91.794 96.300 M416.183 96.021 C 416.300 96.123,417.422 96.338,418.676 96.498 C 420.150 96.687,420.693 96.624,420.213 96.320 C 419.528 95.887,415.702 95.603,416.183 96.021 M425.384 99.373 C 426.360 100.191,427.243 100.779,427.346 100.680 C 427.613 100.423,424.694 97.921,424.103 97.901 C 423.832 97.892,424.408 98.554,425.384 99.373 M84.058 101.206 C 82.819 102.468,81.907 103.595,82.030 103.710 C 82.153 103.825,83.253 102.792,84.474 101.415 C 87.251 98.282,87.034 98.173,84.058 101.206 M427.927 101.124 C 427.927 101.440,430.328 105.089,430.845 105.559 C 431.007 105.707,430.845 105.252,430.483 104.547 C 429.732 103.086,427.927 100.669,427.927 101.124 M80.204 107.622 C 80.012 108.229,79.970 108.840,80.111 108.981 C 80.252 109.122,80.524 108.741,80.717 108.135 C 80.909 107.529,80.951 106.917,80.810 106.776 C 80.669 106.635,80.397 107.016,80.204 107.622 M429.732 120.224 C 428.419 122.662,425.271 125.418,422.096 126.907 C 420.652 127.584,420.048 127.990,420.752 127.809 C 424.588 126.823,432.212 119.936,430.910 118.634 C 430.795 118.519,430.265 119.235,429.732 120.224 M84.305 123.425 C 85.150 124.366,86.303 125.374,86.867 125.666 C 87.430 125.958,87.661 125.996,87.379 125.749 C 87.097 125.502,85.945 124.494,84.818 123.508 L 82.769 121.716 84.305 123.425 M175.911 128.506 C 220.094 128.578,292.393 128.578,336.576 128.506 C 380.759 128.434,344.609 128.375,256.244 128.375 C 167.878 128.375,131.729 128.434,175.911 128.506 M48.264 130.428 C 48.247 130.992,48.424 132.376,48.657 133.503 C 49.013 135.227,49.081 135.308,49.079 134.015 C 49.077 132.220,48.312 128.852,48.264 130.428 M463.121 132.166 C 462.931 133.113,462.801 134.377,462.832 134.976 C 462.863 135.575,463.093 135.028,463.342 133.759 C 463.592 132.491,463.722 131.226,463.631 130.949 C 463.539 130.671,463.310 131.219,463.121 132.166 M458.438 145.335 C 457.960 146.064,457.658 146.749,457.765 146.856 C 457.873 146.964,458.366 146.368,458.860 145.531 C 459.965 143.661,459.635 143.508,458.438 145.335 M54.836 147.355 C 54.836 147.937,57.256 150.624,59.046 152.029 L 60.730 153.350 59.192 151.866 C 58.347 151.050,57.021 149.622,56.246 148.694 C 55.470 147.765,54.836 147.163,54.836 147.355 M455.596 149.006 C 454.561 150.326,451.785 152.790,448.910 154.938 C 447.678 155.859,447.682 155.860,449.195 154.982 C 451.563 153.609,455.019 150.672,456.171 149.054 C 457.500 147.187,457.051 147.149,455.596 149.006 M60.986 153.599 C 60.986 154.046,63.035 155.460,63.292 155.191 C 63.378 155.101,62.894 154.613,62.217 154.107 C 61.540 153.600,60.986 153.372,60.986 153.599 M440.739 158.382 C 440.178 158.762,440.385 158.810,441.508 158.558 C 443.392 158.137,443.801 157.844,442.490 157.854 C 441.950 157.858,441.162 158.096,440.739 158.382 M73.542 159.384 C 74.388 159.599,75.656 159.775,76.361 159.775 C 77.503 159.775,77.476 159.733,76.104 159.384 C 75.259 159.168,73.990 158.992,73.286 158.992 C 72.143 158.992,72.171 159.035,73.542 159.384 M435.871 159.384 C 434.499 159.733,434.472 159.775,435.614 159.775 C 436.319 159.775,437.587 159.599,438.433 159.384 C 439.804 159.035,439.832 158.992,438.689 158.992 C 437.985 158.992,436.716 159.168,435.871 159.384 M79.948 306.878 L 80.204 453.808 80.333 307.263 C 80.404 226.663,80.289 160.544,80.077 160.333 C 79.865 160.121,79.807 226.066,79.948 306.878 M112.064 160.238 C 111.623 160.679,111.716 452.398,112.158 453.966 C 112.341 454.617,112.491 388.718,112.491 307.523 C 112.491 226.328,112.472 159.896,112.448 159.896 C 112.425 159.896,112.252 160.050,112.064 160.238 M431.755 160.537 C 431.430 161.403,431.190 457.122,431.514 456.797 C 431.777 456.535,432.400 159.896,432.139 159.896 C 432.060 159.896,431.887 160.184,431.755 160.537 M171.427 224.982 C 170.781 225.260,170.686 225.422,171.171 225.422 C 171.594 225.422,172.401 225.224,172.965 224.982 C 173.611 224.704,173.705 224.542,173.221 224.542 C 172.798 224.542,171.991 224.740,171.427 224.982 M179.114 224.982 C 179.678 225.224,180.485 225.422,180.908 225.422 C 181.393 225.422,181.298 225.260,180.652 224.982 C 180.088 224.740,179.281 224.542,178.858 224.542 C 178.374 224.542,178.468 224.704,179.114 224.982 M251.375 224.982 C 250.729 225.260,250.634 225.422,251.119 225.422 C 251.542 225.422,252.349 225.224,252.913 224.982 C 253.559 224.704,253.653 224.542,253.169 224.542 C 252.746 224.542,251.939 224.740,251.375 224.982 M259.062 224.982 C 259.626 225.224,260.433 225.422,260.856 225.422 C 261.341 225.422,261.246 225.260,260.600 224.982 C 260.036 224.740,259.229 224.542,258.806 224.542 C 258.322 224.542,258.416 224.704,259.062 224.982 M331.323 224.982 C 330.677 225.260,330.582 225.422,331.067 225.422 C 331.490 225.422,332.297 225.224,332.861 224.982 C 333.507 224.704,333.601 224.542,333.117 224.542 C 332.694 224.542,331.887 224.740,331.323 224.982 M342.598 226.101 C 343.162 226.417,344.257 227.118,345.032 227.658 C 345.807 228.197,346.442 228.517,346.442 228.367 C 346.442 227.955,342.693 225.492,342.095 225.510 C 341.808 225.519,342.034 225.784,342.598 226.101 M165.718 228.185 C 163.632 230.012,160.921 233.963,160.921 235.176 C 160.921 235.599,161.517 234.750,162.245 233.288 C 162.974 231.827,164.620 229.706,165.905 228.575 C 167.189 227.445,168.100 226.519,167.930 226.519 C 167.759 226.519,166.763 227.269,165.718 228.185 M185.447 227.839 C 186.393 228.611,187.835 230.163,188.650 231.289 C 189.466 232.415,190.133 233.103,190.133 232.818 C 190.133 232.049,186.097 227.608,184.828 226.980 C 184.222 226.681,184.501 227.068,185.447 227.839 M244.614 229.327 C 243.118 230.872,241.894 232.405,241.894 232.735 C 241.894 233.065,242.561 232.415,243.377 231.289 C 244.192 230.163,245.634 228.632,246.580 227.886 C 247.526 227.141,248.083 226.528,247.817 226.525 C 247.551 226.522,246.109 227.783,244.614 229.327 M325.515 228.441 L 323.591 230.363 325.407 228.827 C 326.406 227.982,327.442 227.117,327.710 226.905 C 327.978 226.693,328.027 226.519,327.818 226.519 C 327.610 226.519,326.574 227.384,325.515 228.441 M269.991 233.671 C 270.463 234.785,270.921 235.493,271.009 235.243 C 271.171 234.782,269.713 231.644,269.337 231.644 C 269.224 231.644,269.519 232.556,269.991 233.671 M320.598 236.037 C 320.409 236.788,320.354 237.502,320.474 237.622 C 320.595 237.743,320.848 237.227,321.037 236.476 C 321.225 235.725,321.281 235.012,321.160 234.891 C 321.039 234.770,320.786 235.286,320.598 236.037 M271.738 335.936 C 271.665 390.054,271.486 434.910,271.341 435.614 L 271.077 436.896 271.605 435.694 C 271.963 434.880,272.091 402.787,272.003 336.016 L 271.872 237.538 271.738 335.936 M351.818 336.448 C 351.818 390.849,351.877 413.027,351.951 385.734 C 352.024 358.441,352.024 313.932,351.951 286.824 C 351.877 259.717,351.817 282.048,351.818 336.448 M160.147 336.448 C 160.147 390.567,160.207 412.630,160.280 385.478 C 160.354 358.326,160.354 314.047,160.280 287.080 C 160.207 260.114,160.147 282.329,160.147 336.448 M191.921 336.448 C 191.921 390.567,191.981 412.630,192.055 385.478 C 192.128 358.326,192.128 314.047,192.055 287.080 C 191.981 260.114,191.921 282.329,191.921 336.448 M240.095 336.448 C 240.095 390.003,240.155 411.836,240.228 384.966 C 240.302 358.095,240.302 314.277,240.228 287.593 C 240.155 260.908,240.095 282.893,240.095 336.448 M160.481 435.614 C 160.481 436.037,160.679 436.844,160.921 437.408 C 161.199 438.054,161.362 438.149,161.362 437.664 C 161.362 437.242,161.163 436.434,160.921 435.871 C 160.643 435.225,160.481 435.130,160.481 435.614 M190.938 436.420 C 190.750 437.171,190.694 437.884,190.815 438.005 C 190.936 438.126,191.189 437.610,191.377 436.859 C 191.566 436.108,191.621 435.395,191.501 435.274 C 191.380 435.153,191.127 435.669,190.938 436.420 M242.150 440.227 C 242.588 441.072,243.061 441.764,243.202 441.764 C 243.343 441.764,243.100 441.072,242.663 440.227 C 242.226 439.381,241.752 438.689,241.612 438.689 C 241.471 438.689,241.713 439.381,242.150 440.227 M322.098 440.227 C 322.536 441.072,323.009 441.764,323.150 441.764 C 323.291 441.764,323.048 441.072,322.611 440.227 C 322.174 439.381,321.701 438.689,321.560 438.689 C 321.419 438.689,321.661 439.381,322.098 440.227 M349.516 440.069 C 349.516 440.358,348.547 441.723,347.362 443.101 C 346.178 444.480,345.854 445.031,346.644 444.327 C 348.510 442.661,350.226 440.253,349.829 439.856 C 349.657 439.684,349.516 439.780,349.516 440.069 M267.295 443.190 C 265.488 445.356,265.453 445.447,266.955 444.070 C 268.378 442.766,269.937 440.701,269.458 440.756 C 269.378 440.765,268.404 441.861,267.295 443.190 M164.982 443.983 C 166.288 445.421,166.569 445.598,166.542 444.967 C 166.533 444.756,165.899 444.140,165.133 443.599 L 163.740 442.615 164.982 443.983 M185.579 444.609 C 184.343 445.581,183.555 446.377,183.828 446.377 C 184.101 446.377,185.228 445.579,186.332 444.604 C 188.912 442.326,188.480 442.329,185.579 444.609 M245.994 444.692 C 245.994 445.139,248.043 446.553,248.300 446.284 C 248.386 446.194,247.902 445.706,247.225 445.200 C 246.548 444.693,245.994 444.465,245.994 444.692 M172.196 447.907 C 172.619 448.184,173.522 448.414,174.203 448.419 C 175.848 448.429,175.431 448.138,173.221 447.732 C 171.959 447.501,171.655 447.552,172.196 447.907 M178.089 447.914 C 176.671 448.275,176.651 448.309,177.833 448.358 C 178.538 448.387,179.460 448.187,179.883 447.914 C 180.755 447.350,180.305 447.350,178.089 447.914 M252.144 447.907 C 252.567 448.184,253.470 448.414,254.151 448.419 C 255.796 448.429,255.379 448.138,253.169 447.732 C 251.907 447.501,251.603 447.552,252.144 447.907 M258.037 447.914 C 256.619 448.275,256.599 448.309,257.781 448.358 C 258.486 448.387,259.408 448.187,259.831 447.914 C 260.703 447.350,260.253 447.350,258.037 447.914 M332.092 447.914 C 332.515 448.187,333.437 448.391,334.142 448.368 L 335.423 448.324 334.142 447.914 C 332.167 447.281,331.113 447.281,332.092 447.914 M337.986 447.914 C 336.567 448.275,336.547 448.309,337.729 448.358 C 338.434 448.387,339.356 448.187,339.779 447.914 C 340.651 447.350,340.201 447.350,337.986 447.914 M399.826 451.053 C 399.779 451.793,399.619 453.177,399.470 454.128 C 399.223 455.712,399.247 455.751,399.751 454.594 C 400.054 453.899,400.214 452.515,400.107 451.519 C 399.967 450.210,399.889 450.081,399.826 451.053 M80.981 459.232 C 80.985 460.195,81.200 461.316,81.458 461.725 C 81.762 462.205,81.825 461.662,81.636 460.187 C 81.274 457.357,80.970 456.914,80.981 459.232 M430.270 461.019 C 430.081 461.770,430.042 462.500,430.183 462.641 C 430.324 462.782,430.594 462.283,430.782 461.532 C 430.971 460.781,431.010 460.051,430.869 459.910 C 430.728 459.769,430.458 460.268,430.270 461.019 M82.070 464.314 C 82.070 464.736,82.268 465.544,82.510 466.107 C 82.788 466.753,82.951 466.848,82.951 466.364 C 82.951 465.941,82.753 465.134,82.510 464.570 C 82.233 463.924,82.070 463.829,82.070 464.314 M119.922 469.951 C 121.102 471.360,122.183 472.513,122.324 472.513 C 122.465 472.513,121.615 471.360,120.435 469.951 C 119.255 468.542,118.174 467.389,118.033 467.389 C 117.892 467.389,118.742 468.542,119.922 469.951 M391.507 470.079 C 390.272 471.559,389.668 472.446,390.165 472.050 C 391.161 471.255,394.318 467.389,393.970 467.389 C 393.849 467.389,392.741 468.599,391.507 470.079 M386.928 474.128 C 385.942 474.993,385.598 475.466,386.165 475.180 C 387.101 474.706,389.422 472.485,388.929 472.534 C 388.815 472.546,387.915 473.263,386.928 474.128 M85.116 473.282 C 85.116 473.564,85.558 474.602,86.098 475.588 C 86.638 476.575,87.080 477.151,87.080 476.870 C 87.080 476.588,86.638 475.550,86.098 474.563 C 85.558 473.577,85.116 473.000,85.116 473.282 M138.115 480.220 C 139.107 480.628,144.398 480.904,143.966 480.526 C 143.849 480.424,142.254 480.218,140.422 480.070 C 138.466 479.911,137.514 479.973,138.115 480.220 M422.564 481.014 C 422.086 481.743,421.784 482.428,421.891 482.536 C 421.999 482.643,422.492 482.047,422.986 481.210 C 424.091 479.340,423.761 479.187,422.564 481.014 M369.119 480.568 C 369.894 480.685,371.163 480.685,371.938 480.568 C 372.713 480.450,372.079 480.354,370.528 480.354 C 368.978 480.354,368.344 480.450,369.119 480.568 M90.713 483.575 C 90.714 483.833,91.310 484.736,92.036 485.582 L 93.357 487.119 92.200 485.326 C 90.715 483.025,90.710 483.019,90.713 483.575 M419.578 485.610 C 417.505 488.827,411.477 495.128,407.519 498.215 C 403.658 501.226,402.681 502.088,403.840 501.458 C 408.449 498.957,422.358 484.643,421.213 483.580 C 421.100 483.476,420.365 484.389,419.578 485.610 M98.141 492.936 C 99.833 494.713,102.139 496.881,103.266 497.753 C 105.622 499.575,105.348 499.291,99.423 493.766 C 95.595 490.198,95.440 490.097,98.141 492.936 M105.572 499.349 C 105.572 499.490,106.264 500.098,107.110 500.700 C 107.955 501.302,108.647 501.680,108.647 501.539 C 108.647 501.398,107.955 500.790,107.110 500.188 C 106.264 499.586,105.572 499.208,105.572 499.349 M109.929 502.503 C 110.492 502.962,111.415 503.564,111.979 503.841 L 113.003 504.344 111.979 503.510 C 111.415 503.051,110.492 502.449,109.929 502.172 L 108.904 501.669 109.929 502.503 M400.253 503.309 C 399.402 504.005,399.316 504.179,399.997 503.827 C 401.668 502.963,402.595 502.253,402.046 502.257 C 401.765 502.259,400.957 502.732,400.253 503.309 M384.366 509.948 C 383.804 510.328,384.012 510.376,385.134 510.125 C 387.019 509.703,387.428 509.410,386.117 509.420 C 385.576 509.425,384.788 509.662,384.366 509.948 M130.172 510.950 C 130.595 511.223,131.402 511.434,131.966 511.419 L 132.991 511.390 131.966 510.950 C 130.433 510.292,129.153 510.292,130.172 510.950 M380.009 510.950 L 378.985 511.390 380.009 511.419 C 380.573 511.434,381.380 511.223,381.803 510.950 C 382.822 510.292,381.542 510.292,380.009 510.950 M135.809 511.975 C 136.232 512.248,137.270 512.459,138.115 512.444 C 139.435 512.419,139.508 512.353,138.628 511.975 C 137.121 511.327,134.807 511.327,135.809 511.975 M373.603 511.975 C 372.354 512.375,372.360 512.386,373.860 512.400 C 374.705 512.409,375.858 512.217,376.422 511.975 C 377.823 511.373,375.483 511.373,373.603 511.975 " stroke="none" fill="#747474" fill-rule="evenodd"></path><path id="path4" d="M399.993 304.674 C 399.993 384.161,400.052 416.602,400.125 376.765 C 400.197 336.928,400.197 271.894,400.125 232.244 C 400.052 192.593,399.993 225.187,399.993 304.674 " stroke="none" fill="#8c8c8c" fill-rule="evenodd"></path><path id="path5" d="M176.012 47.405 C 176.012 56.425,176.082 60.043,176.167 55.444 C 176.252 50.846,176.252 43.467,176.166 39.045 C 176.081 34.623,176.012 38.385,176.012 47.405 M240.009 32.158 C 248.979 32.237,263.508 32.237,272.296 32.158 C 281.084 32.080,273.745 32.015,255.988 32.015 C 238.230 32.015,231.040 32.080,240.009 32.158 M464.031 111.979 C 464.030 121.280,464.100 125.158,464.184 120.595 C 464.269 116.033,464.269 108.422,464.185 103.683 C 464.100 98.944,464.031 102.677,464.031 111.979 M176.168 96.220 C 220.209 96.292,292.278 96.292,336.320 96.220 C 380.362 96.147,344.328 96.088,256.244 96.088 C 168.160 96.088,132.126 96.147,176.168 96.220 M184.367 160.280 C 223.899 160.353,288.588 160.353,328.120 160.280 C 367.652 160.208,335.308 160.149,256.244 160.149 C 177.180 160.149,144.835 160.208,184.367 160.280 M320.043 336.192 C 320.043 389.606,320.103 411.457,320.177 384.750 C 320.250 358.043,320.250 314.341,320.177 287.634 C 320.103 260.927,320.043 282.778,320.043 336.192 M200.039 480.585 C 230.997 480.658,281.502 480.658,312.274 480.585 C 343.046 480.512,317.717 480.452,255.988 480.452 C 194.258 480.452,169.082 480.512,200.039 480.585 " stroke="none" fill="#848484" fill-rule="evenodd"></path><path id="path6" d="M175.149 448.789 C 175.786 448.912,176.709 448.907,177.199 448.779 C 177.689 448.650,177.167 448.550,176.039 448.556 C 174.912 448.562,174.511 448.666,175.149 448.789 M255.097 448.789 C 255.734 448.912,256.657 448.907,257.147 448.779 C 257.637 448.650,257.115 448.550,255.988 448.556 C 254.860 448.562,254.459 448.666,255.097 448.789 M335.295 448.780 C 335.788 448.909,336.595 448.909,337.089 448.780 C 337.582 448.651,337.178 448.545,336.192 448.545 C 335.205 448.545,334.802 448.651,335.295 448.780 M432.146 449.964 C 432.146 450.951,432.251 451.354,432.380 450.861 C 432.509 450.368,432.509 449.560,432.380 449.067 C 432.251 448.574,432.146 448.977,432.146 449.964 " stroke="none" fill="#c4c4c4" fill-rule="evenodd"></path><path id="path7" d="M432.280 304.418 C 432.280 383.763,432.339 416.223,432.411 376.550 C 432.484 336.877,432.484 271.958,432.411 232.285 C 432.339 192.612,432.280 225.072,432.280 304.418 " stroke="none" fill="#bcbcbc" fill-rule="evenodd"></path><path id="path8" d="M303.506 55.221 L 303.393 63.548 256.001 63.548 L 208.609 63.548 208.447 55.861 L 208.285 48.173 208.305 55.989 L 208.326 63.805 255.874 63.935 C 294.456 64.042,303.471 63.941,303.678 63.401 C 303.818 63.036,303.863 59.172,303.777 54.815 L 303.620 46.893 303.506 55.221 M100.537 63.933 C 114.256 64.009,136.857 64.009,150.760 63.933 C 164.664 63.857,153.439 63.795,125.816 63.795 C 98.193 63.795,86.817 63.857,100.537 63.933 M361.432 63.933 C 375.173 64.009,397.658 64.009,411.399 63.933 C 425.140 63.857,413.898 63.795,386.416 63.795 C 358.933 63.795,347.691 63.857,361.432 63.933 M175.953 127.994 C 220.158 128.066,292.342 128.066,336.361 127.994 C 380.380 127.922,344.212 127.862,255.988 127.862 C 167.763 127.862,131.747 127.922,175.953 127.994 M47.661 133.473 C 47.661 134.161,47.850 134.840,48.081 134.983 C 48.312 135.126,48.401 134.563,48.279 133.732 C 48.010 131.901,47.661 131.754,47.661 133.473 M79.688 308.005 C 79.688 389.324,79.748 422.591,79.820 381.931 C 79.892 341.272,79.892 274.738,79.820 234.079 C 79.748 193.419,79.688 226.686,79.688 308.005 M163.968 228.954 L 162.202 230.876 164.124 229.110 C 165.181 228.138,166.046 227.273,166.046 227.188 C 166.046 226.796,165.612 227.165,163.968 228.954 M187.570 228.826 C 188.527 229.812,189.424 230.619,189.565 230.619 C 189.706 230.619,189.039 229.812,188.083 228.826 C 187.127 227.839,186.229 227.032,186.088 227.032 C 185.947 227.032,186.614 227.839,187.570 228.826 M267.518 228.826 C 268.475 229.812,269.372 230.619,269.513 230.619 C 269.654 230.619,268.987 229.812,268.031 228.826 C 267.075 227.839,266.177 227.032,266.036 227.032 C 265.895 227.032,266.562 227.839,267.518 228.826 M352.330 336.448 C 352.330 391.412,352.390 413.822,352.463 386.247 C 352.537 358.672,352.537 313.701,352.463 286.312 C 352.390 258.922,352.330 281.484,352.330 336.448 M159.635 336.448 C 159.635 390.285,159.695 412.385,159.768 385.559 C 159.841 358.734,159.841 314.686,159.768 287.674 C 159.695 260.663,159.635 282.611,159.635 336.448 M272.382 336.448 C 272.382 390.285,272.442 412.385,272.515 385.559 C 272.589 358.734,272.589 314.686,272.515 287.674 C 272.442 260.663,272.382 282.611,272.382 336.448 M432.181 454.064 C 432.181 455.614,432.277 456.248,432.394 455.473 C 432.511 454.698,432.511 453.430,432.394 452.655 C 432.277 451.879,432.181 452.514,432.181 454.064 M98.654 494.550 C 99.755 495.678,100.771 496.600,100.912 496.600 C 101.053 496.600,100.267 495.678,99.166 494.550 C 98.065 493.423,97.049 492.500,96.908 492.500 C 96.767 492.500,97.553 493.423,98.654 494.550 " stroke="none" fill="#cccccc" fill-rule="evenodd"></path></g></svg>