<svg width="24" height="15" viewBox="0 0 24 15" fill="none" xmlns="http://www.w3.org/2000/svg">
<path d="M12 0.5C14.152 0.5 16.2144 1.47807 17.5801 3.13086L17.7305 3.3125H23C23.2761 3.3125 23.5 3.53636 23.5 3.8125V10.25C23.5 10.5261 23.2761 10.75 23 10.75H17.7305L17.5801 10.9316C16.2144 12.5844 14.152 13.5625 12 13.5625C9.84805 13.5625 7.78556 12.5844 6.41992 10.9316L6.26953 10.75H1C0.723858 10.75 0.5 10.5261 0.5 10.25V3.8125C0.5 3.53636 0.723858 3.3125 1 3.3125H6.26953L6.41992 3.13086C7.78556 1.47807 9.84805 0.5 12 0.5ZM11.7236 0.912109C9.89154 0.987411 8.5575 1.72658 7.6748 2.4541C7.23459 2.81693 6.90611 3.17732 6.68164 3.45215C6.5985 3.55394 6.53116 3.64511 6.47656 3.71875H0.90625V10.3438H6.47656C6.53471 10.4221 6.60694 10.5202 6.69727 10.6299C6.9334 10.9165 7.28023 11.2917 7.74414 11.665C8.67478 12.4139 10.0804 13.1562 12 13.1562C13.9641 13.1562 15.8444 12.2953 17.1318 10.8311L17.3818 10.5459L17.1758 10.2285L13.9707 5.29785L13.6377 4.78613L13.2021 5.21191C12.618 5.78177 11.8581 6.0673 11.0967 6.06738L10.8076 6.05371C10.1818 5.99407 9.57269 5.74057 9.07715 5.29297L8.96484 5.18652C8.89543 5.1171 8.88641 5.00952 8.93848 4.93066L8.96484 4.89844L12.0977 1.76562L13.0039 0.860352L11.7236 0.912109ZM13.1914 1.24707L9.83398 4.60352L9.33398 5.10449L9.97266 5.40918C10.8808 5.84185 11.9904 5.72037 12.7871 5.04199L12.9424 4.89844L13.668 4.17188L14.8066 5.31055C15.2988 5.80263 15.9553 6.0752 16.6514 6.0752C17.0014 6.07519 17.3425 6.00604 17.6582 5.87402L17.792 5.81348C17.9008 5.7605 18.0155 5.73749 18.1094 5.74219C18.177 5.7456 18.2244 5.76185 18.2578 5.78418L18.2861 5.80762C18.3279 5.84943 18.3428 5.89893 18.3418 5.93262C18.3413 5.94829 18.3376 5.9579 18.335 5.96289L18.3174 5.98047C17.8288 6.30584 17.2549 6.48144 16.6514 6.48145C16.497 6.48145 16.3443 6.46989 16.1943 6.44727L15.0947 6.28125L15.7002 7.21387L17.5869 10.1162L17.7354 10.3438H23.0938V3.71875H17.5225C17.4848 3.66801 17.4411 3.60831 17.3896 3.54297C17.2198 3.32718 16.9758 3.04305 16.6514 2.74121C16.0021 2.13731 15.027 1.46117 13.668 1.11621L13.3926 1.0459L13.1914 1.24707Z" stroke="#021B51"/>
</svg>
